<svg width="170" height="99" viewBox="0 0 170 99" fill="none" xmlns="http://www.w3.org/2000/svg">
<path d="M138.671 34.0368C138.671 33.6473 139.342 29.7362 138.518 29.708C136.995 29.6559 136.45 32.1408 135.616 32.7193C135.22 32.9934 135.31 32.9828 135.31 32.5729C135.31 31.7488 135.796 30.8136 136.261 30.0426C136.565 29.5383 137.035 28.8643 137.635 28.4638C137.847 28.3224 138.412 27.8654 138.178 27.9933C137.831 28.1836 137.261 28.2538 136.838 28.3697C136.396 28.4907 136.532 28.0486 136.532 27.8992C136.532 26.8398 137.666 25.9438 137.754 24.9088C137.785 24.5463 137.459 24.6265 136.956 24.6265C135.995 24.6265 135.615 24.7256 135.191 25.3061C134.995 25.575 134.394 26.5379 134.394 25.7662C134.394 24.9611 134.394 24.156 134.394 23.3509C134.394 23.229 134.522 22.6599 134.241 22.6503C133.396 22.6214 133.15 23.1151 132.629 23.4554C132.195 23.7385 131.86 24.1868 131.22 24.3233C131.076 24.354 130.416 24.6672 130.303 24.6056C129.894 24.3812 129.971 23.0872 129.964 22.7863C129.955 22.3884 130.187 21.7082 129.93 21.3329C129.313 20.4297 127.688 20.9174 127.062 21.6152C126.672 22.0494 126.227 22.5202 126.145 23.0268C126.039 23.6834 125.844 22.4921 125.806 22.368C125.563 21.5786 124.878 20.788 124.431 20.0364C124.355 19.9084 123.998 19.4376 123.82 19.7541C123.526 20.2766 123.345 20.8979 123.209 21.4479C123.152 21.6779 123.187 22.1725 122.904 22.3471C122.589 22.5411 119.952 19.9957 119.738 19.6443" stroke="#CABB94" stroke-width="2" stroke-linecap="round"/>
<path d="M133.753 32.8646C133.569 30.844 131.884 29.0747 130.168 28.2042C128.589 27.4031 127.334 26.6508 125.501 26.6508C124.263 26.6508 123.125 26.7766 122.507 28.0117C120.408 32.2108 121.445 39.7238 121.445 44.3629C121.445 45.6893 121.832 46.5384 123.264 46.4873C123.909 46.4643 124.12 45.4589 124.247 44.9869C131.732 37.6348 118.319 29.0443 122.567 42.8957C122.901 43.9841 121.735 43.0044 122.567 43.8185C122.995 44.2378 123.62 44.6836 124.247 44.3762C129.002 42.0431 131.127 26.8624 132.193 35.7259C133.219 44.2534 133.623 46.629 128.734 37.0352" stroke="#CABB94" stroke-width="2" stroke-linecap="round"/>
<path d="M133.992 33.2233C133.992 35.06 133.992 36.8967 133.992 38.7334C133.992 39.8854 134.181 41.2127 133.78 42.3051C133.481 43.1169 133.235 43.9283 132.771 44.6684C132.458 45.1657 131.987 45.6621 131.602 46.1024C131.123 46.6502 130.721 47.3558 130.215 47.8617C129.746 48.3304 129.01 49.2359 128.316 49.2359C127.924 49.2359 127.503 49.2811 127.114 49.2293C126.643 49.1664 126.22 48.7579 125.747 48.7579" stroke="#CABB94" stroke-width="2" stroke-linecap="round"/>
<path d="M123.476 24.9779C122.848 24.9779 122.219 24.9679 121.591 24.9779C121.029 24.9868 120.699 25.3462 120.25 25.6351C120.192 25.672 119.729 26.0772 119.679 26.0268C119.47 25.8178 120.305 24.927 120.429 24.792C120.62 24.5845 120.773 24.3453 120.967 24.1414C121.056 24.0477 121.401 23.9024 121.272 23.9024C120.715 23.9024 119.96 24.365 119.533 24.6858C118.495 25.4642 117.994 26.4308 117.388 27.5404C116.336 29.4698 115.647 31.3535 115.171 33.5419C115.106 33.8427 114.789 36.1694 115.642 35.487C116.454 34.8378 116.978 33.6354 117.322 32.6788C117.718 31.579 117.814 30.4089 118.072 29.2798C118.177 28.8236 118.206 28.8672 118.019 29.1736C117.623 29.8211 116.893 30.3662 116.359 30.8996C114.982 32.2767 115.239 34.2199 115.47 36.0513C115.631 37.3307 116.283 38.4935 116.306 39.7823C116.324 40.7527 116.482 41.6794 116.539 42.6436C116.559 42.9876 116.563 43.6114 116.904 43.8319C116.965 43.8714 117.487 44.6799 117.501 44.3099C117.53 43.5702 117.382 41.3524 117.382 42.0925C117.382 43.6283 117.488 45.5312 118.125 46.9654C118.313 47.3881 118.417 47.0418 118.484 46.7529C118.657 46.0098 118.854 45.2748 118.995 44.5157C119.186 43.4847 119.174 42.4597 119.174 41.4088C119.174 41.317 119.163 40.4151 119.174 40.8976C119.199 41.9285 119.622 43.0926 119.938 44.0642C120.296 45.1679 120.248 46.4486 120.734 47.5031C121.101 48.2979 121.851 49.0448 122.46 49.6541C122.935 50.129 123.699 50.6487 124.067 51.2009C124.256 51.4836 123.777 50.5804 123.569 50.3113C123.399 50.0909 123.149 49.8774 123.005 49.6607C122.9 49.5036 122.961 50.0379 122.905 50.2184C122.825 50.4807 122.879 50.8145 122.879 51.088C122.879 51.4133 121.641 51.4207 121.352 51.6523C120.925 51.994 121.744 52.3262 122.042 52.3428C122.876 52.3891 123.501 51.7736 124.1 51.2938C124.527 50.9527 124.101 53.988 125.149 52.9402C125.309 52.7808 125.503 52.5424 125.68 52.4158C125.77 52.352 125.747 52.959 125.747 53.0332C125.747 53.6144 125.685 53.9609 125.508 54.4937" stroke="#CABB94" stroke-width="2" stroke-linecap="round"/>
<path d="M126.464 54.4938C125.937 54.6375 125.379 55.3819 124.91 55.6888C124.44 55.9965 123.96 56.0758 123.423 56.1734C122.992 56.2518 122.477 56.3816 122.042 56.4058C121.434 56.4396 120.905 56.562 120.303 56.6979C119.517 56.8754 118.712 56.808 117.926 56.9435C117.809 56.9637 116.887 57.0631 116.957 57.0962C117.484 57.346 118.429 57.391 119.002 57.4547C119.998 57.5654 120.995 57.6457 121.989 57.78C122.523 57.8521 123.058 57.8397 123.596 57.8397C123.894 57.8397 123.637 57.8487 123.489 57.8663C122.862 57.9412 122.233 57.99 121.604 58.0522C120.964 58.1155 120.255 58.1695 119.652 58.4107C119.263 58.5662 119.794 58.3827 119.898 58.3177C120.523 57.9267 121.282 57.7602 121.863 57.3086C122.111 57.116 124.432 56.3101 124.432 56.824C124.432 58.3426 127.7 57.75 128.402 57.3352C128.63 57.2005 130.112 56.4608 129.557 56.3991C128.514 56.2832 128.375 55.9006 128.375 54.9851C128.375 51.5389 127.61 57.8281 130.048 54.4407C132.935 50.4321 130.545 49.1218 130.314 49.382C129.536 50.2573 131.376 54.3478 131.675 55.2971C132.003 56.3392 132.251 57.7312 132.863 58.6497C133.324 59.3413 133.927 56.8275 133.932 56.8041C134.087 56.0573 134.458 56.8544 134.47 55.8614C134.493 53.9566 134.854 52.0922 135.067 50.2052C135.112 49.814 135.389 47.9892 135.426 48.2401C135.492 48.6855 136.316 53.0183 136.501 53.0067C136.827 52.9864 136.621 45.2649 136.621 44.3432C136.621 43.1086 137.897 49.055 138.329 51.4276C138.865 51.4276 137.514 41.7332 137.729 42.4324C138.04 43.4443 138.865 44.6984 138.865 40.6333" stroke="#CABB94" stroke-width="2" stroke-linecap="round"/>
<path d="M165.659 34.1793C164.989 33.9154 164.354 33.5766 163.681 33.3163C163.472 33.2355 162.819 33.1039 163.043 33.1039C164.836 33.1039 166.57 33.0719 168.321 33.5221C168.439 33.5524 168.933 33.6958 168.912 33.6881C168.127 33.4025 167.349 33.1227 166.549 32.8781C165.211 32.4694 163.91 31.9924 162.552 31.6433C162.156 31.5414 161.796 31.4309 162.459 31.4309C163.172 31.4309 164.023 31.5484 164.63 31.9686C165.334 32.4562 164.394 33.619 163.913 33.854C161.637 34.9657 159.129 33.9339 156.922 33.2897C155.32 32.8221 153.814 32.6259 152.156 32.6259C150.862 32.6259 152.685 32.6259 153.039 32.6259C155.114 32.6259 157.267 32.7322 159.326 32.4333C160.384 32.2797 161.395 31.9089 162.472 31.9089C168.098 31.9089 151.222 31.9089 145.597 31.9089C145.356 31.9089 143.746 31.9089 143.983 31.9089C145.646 31.9089 147.277 31.886 148.929 31.6699C150.608 31.4504 152.299 31.4476 153.988 31.4309C154.083 31.4299 156.231 31.2126 156.199 31.1321C156.141 30.9876 155.401 31.0724 155.303 31.0724C154.181 31.0724 153.059 31.0724 151.937 31.0724C150.648 31.0724 149.355 31.0437 148.066 31.079C147.03 31.1074 146.033 31.4553 145.039 31.723C144.302 31.9215 143.336 32.2322 142.676 32.5993C142.376 32.7655 141.295 33.3641 141.295 33.7478C141.295 33.7739 141.844 33.4265 141.879 33.4026C142.266 33.1398 142.679 32.9204 143.054 32.6391C143.308 32.449 143.577 32.2818 143.837 32.1014C143.873 32.0767 144.102 31.9066 144.096 31.962C144.05 32.3756 143.471 32.9283 143.247 33.2233C142.465 34.249 141.676 35.2558 141.003 36.3568C140.522 37.1419 139.976 37.877 139.489 38.6538C139.313 38.9348 139.129 39.3562 138.838 39.5501C138.297 39.9107 139.678 38.5522 140.027 38.0032C140.909 36.6136 141.815 35.2099 142.755 33.8607C143.086 33.3866 143.462 32.9625 143.764 32.4665C143.994 32.0892 143.802 32.3196 143.645 32.5329C142.546 34.0238 141.26 35.3778 140.179 36.8813C139.738 37.4953 138.991 38.6109 138.294 38.9592" stroke="#CABB94" stroke-width="2" stroke-linecap="round"/>
<path d="M157.533 24.6195C154.881 24.6195 152.215 24.7026 149.567 24.5531C148.41 24.4878 147.273 24.3805 146.115 24.3805C142.293 24.3805 153.826 24.1354 157.566 24.9182C157.881 24.984 158.193 25.0851 158.516 25.0975C159.055 25.1182 157.436 25.1002 156.896 25.0975C153.618 25.0809 150.393 24.3145 147.15 23.9092C145.671 23.7242 144.226 23.5935 142.742 23.544C142.471 23.535 143.855 23.0757 144.096 22.9996C145.017 22.7097 146.928 22.5519 147.681 23.305C147.969 23.5926 146.634 24.1266 146.453 24.2145C145.448 24.7027 144.423 25.1634 143.439 25.6883C142.971 25.9379 142.474 26.0939 141.999 26.319C141.747 26.4382 141.713 26.5486 141.766 26.173C141.83 25.725 142.254 25.2481 142.477 24.8585C143.211 23.5739 143.042 25.0837 142.928 25.7082C142.75 26.6859 142.315 27.6149 141.959 28.5363C141.195 30.5084 140.373 32.4722 139.443 34.3718C139.01 35.2543 137.453 37.7156 138.148 37.0207C138.913 36.2558 139.474 35.2151 139.927 34.2457C140.823 32.3297 141.559 30.3252 142.131 28.2907C142.467 27.0978 142.761 25.9236 142.981 24.7124C143.103 24.0437 142.743 24.3159 142.297 24.6261C140.002 26.2226 139.461 29.7367 138.892 32.2408C138.704 33.0642 138.488 33.8813 138.294 34.7037C138.223 35.0063 138.053 35.5828 138.387 34.9494C139.096 33.6052 139.818 32.3449 140.326 30.9064C140.633 30.0364 140.858 29.1195 141.222 28.2708C141.36 27.9474 141.64 26.9497 141.64 27.3015C141.64 28.3661 140.765 29.736 140.312 30.674C139.616 32.1154 138.928 33.618 138.055 34.9626C137.933 35.1512 137.381 35.8307 137.577 35.7327" stroke="#CABB94" stroke-width="2" stroke-linecap="round"/>
<path d="M121.437 20.881C121.437 19.1499 120.205 17.551 119.889 15.8444C119.664 14.6308 119.169 16.8802 118.958 17.3534C118.681 17.9761 118.384 18.6022 118.086 19.2152C118.059 19.271 117.811 19.8403 117.733 19.7051C116.999 18.4193 116.805 16.4656 116.636 15.0213C116.533 14.1453 116.499 13.2949 116.499 12.4149C116.499 11.3889 116.541 14.474 116.411 15.4917C116.381 15.7197 116.104 18.18 115.979 17.618C115.882 17.1782 115.6 16.8514 115.44 16.4324C115.074 15.4678 114.965 14.3573 114.696 13.3556C114.638 13.1416 113.68 8.09048 112.716 8.91674C112.332 9.24598 112.618 11.1487 112.618 11.7094C112.618 13.1471 111.037 10.1705 110.894 9.94561C109.678 8.03864 108.465 6.14978 107.161 4.30155C106.415 3.24528 105.818 1.94079 104.799 1.10717C104.037 0.483747 104.312 2.77119 104.338 3.1355C104.446 4.58282 105.167 6.08041 105.563 7.46653C105.717 8.00309 105.914 8.5221 106.053 9.06372C106.164 9.49417 106.427 9.56322 106.19 9.20091C105.342 7.90345 103.27 6.69857 101.781 6.42787C101.207 6.32344 101.599 7.62831 101.673 7.88788C101.74 8.12132 101.697 7.38717 101.605 7.16277C101.315 6.46068 100.702 5.78161 100.233 5.18343C100.101 5.01581 98.751 3.38948 98.3711 3.81161C98.0226 4.19876 98.2953 6.08454 98.3417 6.59445C98.4676 7.97952 98.6575 8.15424 97.3618 7.13338C96.9313 6.79415 95.3682 5.28933 94.8044 5.35981C94.4407 5.40527 94.628 7.31511 94.628 7.65271C94.628 8.43451 92.2556 6.56451 91.8059 6.33968C91.4183 6.14588 90.4487 5.48879 90.5811 6.34948C90.6514 6.80644 91.2608 8.21484 90.3949 7.61351C90.1963 7.4756 88.5223 6.28611 88.3176 6.67284C88.1229 7.04053 88.6389 7.82909 88.1902 7.82909C87.502 7.82909 85.8696 7.00256 85.4564 7.82909" stroke="#CABB94" stroke-width="2" stroke-linecap="round"/>
<path d="M80.1592 7.2068C76.619 7.2068 73.0788 7.2068 69.5386 7.2068C69.0891 7.2068 68.6397 7.2068 68.1902 7.2068C68.1473 7.2068 69.2137 6.83737 69.4832 6.73832C69.9961 6.54977 70.5913 6.30989 71.1455 6.26984C72.2877 6.1873 70.2124 6.28919 69.9819 6.30454C64.5723 6.66467 58.8053 7.02272 53.4322 6.105C51.1329 5.71228 48.7969 5.36372 46.4873 5.01187C44.587 4.72239 42.7604 4.23974 40.826 4.23974C35.2311 4.23974 29.5615 3.55853 24.0455 4.74293C16.5925 5.01179 0.400928 11.2486 52.2263 9.43644C53.1304 9.69123 55.8887 9.97187 54.96 10.1305C53.0685 10.4535 50.8412 10.0753 48.9755 9.86154C46.5173 9.57992 44.091 9.70698 41.6427 9.32365C35.2095 8.31643 32.2723 5.53662 25.4677 7.36296C23.8411 7.79956 27.8931 7.55937 34.5553 7.14607C42.7533 6.63751 49.4234 9.1501 57.3796 10.2259C61.0832 10.7267 64.519 8.97931 68.1902 9.86154C71.5088 10.659 74.6886 11.6869 78.0905 12.1693C78.5942 12.2407 79.0478 12.1857 79.5312 12.3254C80.545 12.6185 79.3917 12.3095 78.9863 12.1953C76.4926 11.4925 73.9186 10.6607 71.5149 9.70538C70.4553 9.28423 69.1603 8.70219 68.0055 8.60358C67.4006 8.55192 66.7287 8.53383 66.1308 8.44742C65.6482 8.37768 65.6248 8.07027 66.1308 7.98761C67.4024 7.77985 68.6663 7.46172 69.9542 7.36296C70.4366 7.32597 74.0085 6.76078 74.0085 7.51913" stroke="#CABB94" stroke-width="2" stroke-linecap="round"/>
<path d="M81.9285 13.2968C79.3787 13.2968 77.0352 13.2005 74.5598 12.5129C73.104 12.1085 71.6208 11.7107 70.121 11.5232C69.5843 11.4561 69.5833 11.2746 70.1896 11.5722C71.9959 12.4589 73.7397 13.5029 75.5789 14.3159C76.7217 14.821 77.9424 15.1673 79.0771 15.6779C80.0443 16.1131 79.4993 16.1371 78.6165 16.011C75.6373 15.5854 72.7215 14.7492 69.7389 14.3159C64.0433 13.4885 58.18 13.2519 52.4343 13.5908C47.558 13.8783 42.7554 13.9083 37.8735 14.0905C30.5084 14.3653 23.1873 15.3591 15.9243 16.5696C15.4331 16.6514 12.3268 16.7555 12.0734 17.3045C11.0314 19.5621 9.1497 21.0681 7.18387 22.4978C5.64884 23.6142 3.96037 24.5519 2.69606 25.9567C2.36507 26.3245 2.04498 26.6751 1.58881 26.8778C-0.407544 27.7651 3.2688 27.4069 3.81312 27.4069C7.2228 27.4069 10.6113 27.5833 14.0234 27.5833C17.0321 27.5833 20.1687 27.3181 23.1264 27.9361C27.0823 28.7627 31.2488 29.0115 35.267 29.4843C36.117 29.5843 36.9159 29.5149 37.7461 29.3275C40.8963 28.6162 44.1347 28.2 47.3586 28.0341C52.3276 27.7783 57.2846 28.1125 62.2527 28.1125C65.6313 28.1125 69.0309 28.2394 72.4041 28.0733C77.2717 27.8335 82.0542 26.8778 86.9454 26.8778C87.1669 26.8778 87.8636 26.9977 88.0625 26.8386C88.4202 26.5524 85.86 26.2217 85.6128 26.1723C75.7642 24.2026 65.7577 23.6908 55.7365 23.8892C53.0293 23.9428 50.3423 24.3206 47.6526 24.5849C45.3644 24.8098 43.0697 24.7613 40.7739 24.7613C38.8228 24.7613 37.0925 24.3715 35.1984 24.0558C34.7758 23.9854 34.3608 23.7509 33.954 23.703C33.4872 23.6481 34.8999 23.5267 35.0318 23.5267C39.5278 23.5267 44.0224 22.9805 48.5149 22.782C51.2127 22.6627 53.899 22.6448 56.5988 22.6448C58.5234 22.6448 60.7138 21.647 62.5858 21.2338C63.4128 21.0512 65.5674 21.1059 66.1329 20.3519C66.2642 20.1768 65.0894 20.1755 64.9571 20.1755C64.0915 20.1755 63.226 20.1755 62.3604 20.1755C61.9456 20.1755 61.5308 20.1755 61.116 20.1755C60.3673 20.1755 61.9936 20.1755 62.1547 20.1755C66.2993 20.1755 69.6055 22.7475 73.4526 23.8696C75.9332 24.5931 78.1406 24.9377 80.6938 24.9377" stroke="#CABB94" stroke-width="2" stroke-linecap="round"/>
<path d="M46.6533 17.177C46.2312 19.7099 43.1028 21.8721 41.3228 23.4776C40.6798 24.0575 40.0131 24.9065 39.2455 25.2903" stroke="#CABB94" stroke-width="2" stroke-linecap="round"/>
<path d="M39.2459 25.2904C39.9541 25.2904 42.399 23.1692 42.0483 22.3802C41.7639 21.7403 39.7726 21.625 39.2459 21.5473C36.2534 21.1058 33.2897 21.0574 30.2703 21.0574C27.0106 21.0574 23.7509 21.0574 20.4911 21.0574C19.4079 21.0574 21.6656 20.5015 21.8924 20.4303C23.571 19.9027 25.0945 18.9641 26.8015 18.5489C27.4929 18.3807 28.3327 18.2235 27.5854 19.1368C26.8661 20.016 26.1067 20.7919 25.3121 21.5865" stroke="#CABB94" stroke-width="2" stroke-linecap="round"/>
<path d="M29.5447 26.525C29.5125 26.7822 15.7414 24.7612 13.318 24.7612" stroke="#CABB94" stroke-width="2" stroke-linecap="round"/>
<path d="M85.8093 19.8228C81.5788 19.8228 77.4187 18.7871 73.2278 18.3726C71.2087 18.1729 69.1794 18.2354 67.1526 18.2354C65.224 18.2354 63.1102 18.4979 61.2048 18.1374C60.1234 17.9328 58.7072 17.6836 57.8536 17.0008C57.4005 16.6383 56.9759 15.9425 56.3544 15.9425" stroke="#CABB94" stroke-width="2" stroke-linecap="round"/>
<path d="M64.9963 12.9441C66.6426 12.9441 68.6678 14.7269 69.9349 15.5897C71.7688 16.8387 73.4036 18.3399 75.0302 19.8424C75.4943 20.2711 76.0047 20.6744 76.2844 21.2338" stroke="#CABB94" stroke-width="2" stroke-linecap="round"/>
<path d="M64.4678 19.1172C59.2745 19.1172 54.0811 19.1172 48.8878 19.1172C46.9117 19.1172 44.9357 19.1172 42.9596 19.1172C42.2137 19.1172 41.3178 19.2413 40.5883 19.0193C39.6357 18.7293 39.5047 17.9238 38.7167 17.5298" stroke="#CABB94" stroke-width="2" stroke-linecap="round"/>
<path d="M81.9285 12.7675C82.0926 13.1285 82.5939 13.3638 82.8888 13.5906C83.9817 14.4313 84.9953 15.3717 86.044 16.2657C87.2207 17.2688 88.5726 18.1523 89.3755 19.509C89.4835 19.6915 89.8984 21.0376 90.13 21.0376C90.4633 21.0376 89.3156 19.2169 89.2579 19.1171C89.0955 18.8355 87.7478 16.733 88.4545 16.834C90.0013 17.055 91.369 19.2079 92.6875 19.999" stroke="#CABB94" stroke-width="2" stroke-linecap="round"/>
<path d="M82.6345 8.71093C81.6148 8.60896 80.553 8.19844 79.5773 7.90744C79.3523 7.84033 77.4014 7.51488 77.4608 7.57428C78.6961 8.80958 79.9073 10.0205 81.0863 11.3174C81.1102 11.3437 79.8843 11.3592 79.6557 11.3566C78.2844 11.341 77.1105 10.7733 75.7656 10.6511C74.5037 10.5364 73.3283 10.1219 72.0519 10.1219" stroke="#CABB94" stroke-width="2" stroke-linecap="round"/>
<path d="M103.27 17.5299C103.722 17.5299 104.325 17.6441 104.76 17.5201C104.995 17.4527 104.854 16.1012 104.818 15.9425C104.482 14.4267 102.846 15.3101 104.093 15.8445C105.685 16.5264 109.796 17.6704 109.796 14.747C109.796 13.107 105.527 9.51021 104.23 11.2783C104.069 11.4981 103.357 12.9441 103.094 12.9441C102.68 12.9441 102.114 11.7333 101.761 11.4449C101.268 11.0411 99.8144 10.6189 99.6055 11.4547C99.4016 12.2701 99.871 14.802 99.7329 13.9729C99.5922 13.129 96.2151 10.7908 96.2151 12.5031C96.2151 13.3515 93.1798 12.1728 92.864 13.1204" stroke="#CABB94" stroke-width="2" stroke-linecap="round"/>
<path d="M113.677 16.4716C113.742 17.3216 114.183 18.0882 114.206 18.9409C114.228 19.7702 114.036 19.6464 113.216 19.6464C112.741 19.6464 110.721 19.2881 110.855 19.5092C111.953 21.3219 112.923 23.206 114.02 25.0161C114.166 25.2571 114.967 26.3487 114.275 26.3487C113.389 26.3487 112.526 26.0206 111.639 25.996C110.8 25.9727 111.208 28.7904 111.208 29.5235" stroke="#CABB94" stroke-width="2" stroke-linecap="round"/>
<path d="M108.032 24.2322C108.032 25.205 108.05 26.1796 108.032 27.1522C108.008 28.4179 106.024 27.5016 105.475 27.113C104.545 26.4557 103.445 25.2357 103.025 24.1636C102.696 23.3224 102.658 23.3355 102.78 24.3693C102.9 25.382 103.27 26.293 103.27 27.3285C103.27 27.5691 103.305 27.7747 103.035 27.5049C101.909 26.379 101.098 24.9281 100.301 23.5658C100.002 23.0551 98.8605 20.0403 98.8605 21.9393C98.8605 23.0412 99.2133 24.1327 99.2133 25.212C99.2133 25.4194 97.9007 23.2728 97.6651 22.8015C97.5211 22.5135 97.3925 22.1446 97.1947 21.8903C97.12 21.7942 97.0968 23.2763 97.0968 23.4189C97.0968 24.1841 97.4319 25.9032 96.9988 26.5838C96.8318 26.8462 95.3306 24.3719 95.1174 24.0166C94.8194 23.5199 94.8417 23.3503 94.2747 23.3503C94.0168 23.3503 93.5005 23.1064 93.3047 23.1935C92.991 23.3329 92.8669 24.0525 92.5992 24.3203C92.2243 24.6952 91.6055 24.7613 91.0999 24.7613" stroke="#CABB94" stroke-width="2" stroke-linecap="round"/>
<path d="M102.212 31.4634C101.721 32.888 100.53 35.3808 99.4881 33.1488C99.3697 32.895 99.2136 31.7969 98.9492 32.4727C98.5464 33.5019 98.2831 34.5569 97.45 35.3437C96.4448 36.2931 96.7445 33.7214 96.7445 33.335C96.7445 32.5025 96.2785 33.2278 95.8626 33.4819C95.1323 33.9282 94.4173 34.1739 93.6089 34.4226C92.7967 34.6725 93.032 33.4259 93.0406 32.9724C93.0512 32.4106 93.8136 31.5833 93.1092 32.0121C92.275 32.5199 91.443 33.0041 90.4831 33.2174C89.8209 33.3645 90.0422 32.1413 90.0422 31.8162C90.0422 31.2231 90.1046 30.7266 89.513 31.287C89.1239 31.6557 88.3907 32.1689 87.8472 32.1689C87.2887 32.1689 87.443 28.9409 89.1603 30.2288" stroke="#CABB94" stroke-width="2" stroke-linecap="round"/>
<path d="M110.325 33.0511C110.325 34.105 109.94 35.1497 109.62 36.1475C109.549 36.368 109.261 37.1442 109.052 36.5394C108.876 36.0325 108.759 35.563 108.738 35.0304C108.716 34.4489 108.005 36.3275 107.944 36.4806C107.688 37.1313 106.876 40.0757 105.661 39.3027C104.735 38.713 104.563 36.4122 104.191 38.5188C103.241 43.9033 102.384 36.8333 101.938 36.9608C101.069 37.209 101.483 39.8468 100.36 40.0964C99.5476 40.2769 99.7428 36.8959 99.7428 36.4022C99.7428 34.6454 98.5763 37.2263 98.2534 37.7153C97.9626 38.1556 96.1794 41.2853 95.255 40.3609C94.9529 40.0589 95.0565 38.2411 95.2452 37.9015C95.9525 36.6283 93.1085 39.9448 91.8059 40.5961C90.3467 41.3257 90.7476 39.055 90.7476 38.166C90.7476 37.3211 91.5222 36.6396 90.4732 37.5487C89.5842 38.3192 87.905 39.5931 86.7007 39.7436C85.7937 39.857 86.8512 35.8893 87.3964 35.344" stroke="#CABB94" stroke-width="2" stroke-linecap="round"/>
<path d="M113.676 43.4572C113.676 48.4797 114.095 53.6845 113.147 58.6452C112.949 59.6842 112.794 60.1129 112.794 58.7432C112.794 55.9832 112.794 53.2233 112.794 50.4633C112.794 50.242 112.84 48.2478 112.696 48.7191C112.204 50.3376 112.057 52.0141 111.815 53.6773C111.689 54.5349 111.207 57.072 111.207 56.2053C111.207 54.3849 110.845 52.542 110.717 50.7279C110.704 50.544 110.297 47.6656 110.286 47.6707C109.667 47.9457 109.845 51.6406 109.796 52.1193C109.62 53.8315 109.608 55.5769 109.306 57.2734C109.163 58.0758 109.267 57.7428 109.179 56.999C108.821 53.9972 108.347 50.9876 107.856 48.0038C107.743 47.3157 107.503 44.9369 107.503 46.9064C107.503 49.9898 108.169 52.9995 108.914 55.98" stroke="#CABB94" stroke-width="2" stroke-linecap="round"/>
<path d="M111.736 58.6257C111.422 58.5971 110.001 57.8621 110.364 58.3513C111.249 59.5423 112.375 60.5427 113.284 61.7221C113.919 62.5446 113.163 62.4934 112.285 62.506C111.18 62.5218 110.213 62.3927 109.198 61.9867C108.975 61.8975 109.686 61.9196 109.894 61.8005C110.233 61.6068 110.623 61.4747 110.942 61.2616C111.166 61.1128 111.685 60.5658 111.109 60.5658C110.551 60.5658 108.885 60.3895 109.443 60.3895" stroke="#CABB94" stroke-width="2" stroke-linecap="round"/>
<path d="M111.737 63.7406C112.172 63.3593 111.22 67.0807 111.207 67.0428C110.786 65.7774 110.502 64.1367 110.502 62.8098C110.502 62.2676 110.325 63.8844 110.325 64.4265C110.325 64.9263 110.501 66.3898 110.316 65.9257C110.257 65.7778 109.516 64.4079 109.267 65.0929C108.783 66.4258 108.989 68.4039 109.228 69.7766C109.296 70.1671 109.267 70.5767 109.267 70.9721C109.267 71.6759 109.276 70.4017 109.306 70.2274C109.356 69.9418 109.796 67.5292 109.796 68.6792C109.796 69.2222 109.973 69.6913 109.973 70.2666" stroke="#CABB94" stroke-width="2" stroke-linecap="round"/>
<path d="M81.047 53.6871C81.047 55.8493 81.047 58.0116 81.047 60.1738C81.047 60.7258 81.047 61.2778 81.047 61.8298C81.047 62.2334 81.0166 61.0187 80.9294 60.6245C80.3732 58.1113 79.96 55.4627 79.146 53.0207C78.8093 52.0105 79.1069 55.1502 79.1069 56.2151C79.1069 57.8668 78.9873 59.5564 79.244 61.1929C79.351 61.8751 79.1567 61.088 79.0971 60.8891C78.911 60.2689 78.7587 59.6321 78.4993 59.0372C78.3915 58.7898 77.3964 56.8375 77.3823 56.8814C76.9123 58.3435 77.5712 60.5657 77.9114 61.9768C78.6069 64.8619 78.7222 67.847 79.4204 70.7172C79.6029 71.4673 80.5048 72.2328 81.1842 72.5202C81.863 72.8074 82.1907 73.2649 82.9871 73.2649C84.4421 73.2649 84.8768 70.0066 85.0939 69.0024C85.9234 65.1658 85.4564 60.9658 85.4564 57.048C85.4564 56.2627 85.2975 55.2449 84.3198 55.8036C83.9282 56.0273 83.869 56.4397 83.869 56.852C83.869 59.1515 83.869 61.4509 83.869 63.7503C83.869 65.034 83.869 66.3176 83.869 67.6012C83.869 69.2662 83.6577 64.2696 83.3497 62.6333C83.1567 61.6078 82.8859 60.5946 82.7128 59.5663C82.6882 59.4203 82.7246 58.5171 82.5462 58.41C82.4927 58.3779 82.4887 59.9882 82.4972 60.0954C82.5683 60.9875 82.7763 61.8638 82.8892 62.7509C83.0155 63.7433 83.1635 66.7399 83.1635 65.7395C83.1635 65.0607 82.8108 65.5628 82.8108 66.0334C82.8108 66.7055 82.947 67.5417 82.801 68.199C82.6526 68.8666 82.2253 66.9582 81.9387 66.3372C81.34 65.04 81.7525 69.1905 81.7525 70.6192" stroke="#CABB94" stroke-width="2" stroke-linecap="round"/>
<path d="M82.6345 85.0821C82.6345 84.433 82.953 83.8709 82.9873 83.2204C83.0533 81.9658 83.1636 80.7304 83.1636 79.4577C83.1636 78.2584 83.2923 77.0872 82.6345 76.0183C82.4286 75.6837 82.1496 75.3814 81.7526 75.3814C80.8513 75.3814 81.0105 76.9598 80.9589 77.5371C80.6768 80.6971 80.8707 83.9356 80.8707 87.1105C80.8707 88.3065 81.072 87.2237 81.2235 86.5911C81.5365 85.284 81.4756 83.9476 81.586 82.6227C81.606 82.3829 81.929 81.1849 81.929 81.4174C81.929 82.0723 81.9935 82.7555 81.8408 83.3968C81.4084 85.2127 83.2699 83.1332 83.7712 82.799C84.8706 82.0661 84.4156 83.7132 84.3983 84.553C84.3642 86.2071 84.0082 87.9937 83.4478 89.5504C83.3727 89.7591 82.9873 90.5903 82.9873 89.8835C82.9873 87.4534 82.9873 85.0233 82.9873 82.5933C82.9873 81.4141 82.7017 79.7944 83.1538 78.664C83.2667 78.3819 83.1675 79.2715 83.1636 79.5753C83.1487 80.7406 82.9628 81.9368 82.7717 83.0832C82.3807 85.4289 81.923 87.7491 81.3313 90.0501C81.2745 90.271 81.06 91.7061 80.6944 91.7061C80.3351 91.7061 80.6944 90.9875 80.6944 90.6282C80.6944 90.4761 80.6944 89.6665 80.6944 89.8443C80.6944 90.6033 80.5167 90.983 80.126 91.6081C79.7848 92.1541 79.1433 92.5717 79.4989 93.3719C80.4585 95.5309 77.016 95.5881 76.4613 97.2521" stroke="#CABB94" stroke-width="2" stroke-linecap="round"/>
<path d="M54.9429 84.7292C52.819 84.7292 50.889 85.7875 48.7305 85.7875C48.1661 85.7875 47.5208 85.8643 46.9667 85.7483C46.2735 85.6032 45.8985 85.2584 45.154 85.2584C44.4698 85.2584 43.6548 86.4176 43.6548 87.1201C43.6548 88.0328 44.032 88.7094 44.6248 89.3934C44.7259 89.51 45.4185 90.4063 45.4185 90.1969" stroke="#CABB94" stroke-width="2" stroke-linecap="round"/>
<path d="M50.8866 85.6112C51.4779 85.6112 51.8654 85.4698 52.3172 85.0527C52.8507 84.5602 54.2788 83.3564 54.4043 82.603C54.4898 82.0899 53.3578 82.418 53.1599 82.4756C52.1746 82.7626 51.4328 83.6296 50.7494 84.3472C50.4547 84.6566 48.7632 87.0095 49.9949 85.7778C51.985 83.7877 53.511 81.43 55.3842 79.3597C55.764 78.9399 56.2515 78.1829 56.4327 79.1147C56.726 80.6234 56.707 82.3329 56.707 83.8671C56.707 84.4709 56.3997 86.2595 56.5306 85.67C56.6262 85.2403 57.0061 84.8669 57.2558 84.5236C58.2514 83.1545 59.3129 81.8117 60.215 80.3787C62.9825 75.9823 64.452 70.6908 65.7708 65.7198C66.1246 64.3863 66.5106 62.8194 66.7311 61.4084C66.8797 60.4572 66.8516 61.0418 66.6233 61.0165C66.501 61.0029 66.6545 60.5657 66.2314 60.5657C65.7363 60.5657 65.37 60.6226 65.0653 61.0752C63.6652 63.1555 63.2726 66.2666 62.8214 68.6595C62.2228 71.8345 62.28 75.3218 61.43 78.4386C61.2679 79.0331 61.3122 78.5873 61.2536 78.223C60.9386 76.2629 60.5971 74.3475 60.4501 72.3634C60.4056 71.7625 60.4109 71.1624 60.4109 70.5604C60.4109 70.2762 60.5588 69.4715 60.4011 69.7079C59.9946 70.3177 60.2283 71.8985 60.1954 72.5789C60.137 73.785 60.0581 74.991 59.872 76.1849C59.8 76.6469 59.5771 79.9663 58.9117 80.1142C58.0093 80.3147 57.4537 71.4474 57.4125 70.5016C57.3426 68.8933 57.2362 67.3007 57.2362 65.6904C57.2362 64.9383 57.4125 65.2667 57.4125 65.8766C57.4125 68.1107 57.311 74.7879 57.05 72.5691C56.5595 68.3999 56.8834 64.0932 56.8834 59.8994C56.8834 58.5583 56.7927 62.5816 56.6678 63.9169C56.497 65.7431 56.2335 67.5395 55.9231 69.3454C55.8211 69.939 55.7863 70.6716 55.4724 71.2071C55.3652 71.39 55.1329 71.9478 55.1196 71.7362C54.9594 69.1722 55.1196 66.5422 55.1196 63.9757C55.1196 62.0551 55.1196 60.1346 55.1196 58.214C55.1196 57.3534 55.3733 58.4181 55.4332 58.7236C55.5056 59.0926 55.5951 59.6056 55.9133 59.8602C56.0927 60.0037 56.6061 59.2556 56.8148 59.0469C57.8071 58.0546 58.8509 57.1177 59.8818 56.1661C61.2687 54.8858 62.9967 54.1376 64.5264 53.0697C65.0393 52.7116 65.4866 52.2564 66.0158 51.9232C66.4647 51.6406 65.9692 52.8803 65.957 52.9227C65.4415 54.7119 64.881 56.5641 64.0463 58.2336C63.7322 58.8618 63.5712 59.0482 63.8111 58.1846C64.8749 54.355 66.1201 50.6295 66.8389 46.6907C67.3697 43.7822 68.2385 34.9957 68.3479 37.9503C68.3733 38.6362 68.146 39.3252 67.9755 39.9786C67.4915 41.8341 66.9946 43.6848 66.5645 45.5541C65.8757 48.5481 65.5297 51.7046 64.2128 54.5101C63.0656 56.9542 57.7863 63.1337 59.0391 60.7421C59.3237 60.1989 59.8598 59.7423 60.215 59.2429C60.8566 58.3405 61.2503 57.2799 61.7828 56.3131C62.8348 54.4028 63.7951 52.4376 64.7028 50.4534C65.0282 49.742 65.2996 48.7888 65.7806 48.1703C67.0177 46.5798 63.4594 51.4654 62.2531 53.0795C60.8035 55.0191 59.2517 56.8823 57.7751 58.8019C57.4073 59.28 57.1135 60.054 56.4425 60.2032C55.2288 60.4728 57.0068 53.777 57.05 53.5792C57.9209 49.5877 59.871 45.7392 62.3413 42.4969C62.3979 42.4225 63.0258 41.5406 63.1938 41.7326C63.2596 41.8078 62.8502 42.1933 62.9586 41.7326C63.2988 40.2869 64.3198 38.9128 65.0947 37.6759C65.8611 36.4527 66.7147 34.9679 67.6816 33.8936C68.9309 32.5055 66.6494 35.0542 66.3882 35.3634C64.2991 37.8362 61.9738 40.521 60.5873 43.4572C60.2557 44.1593 60.0097 44.9329 59.5291 45.5737" stroke="#CABB94" stroke-width="2" stroke-linecap="round"/>
<path d="M54.9429 49.8068C54.6382 50.9491 53.6394 52.069 52.6892 52.7268C52.5284 52.8381 51.3583 53.7178 51.4251 53.2168C51.7227 50.9847 53.4817 49.2092 54.1002 47.122C54.2535 46.6047 52.7449 47.7052 52.6304 47.7687C51.6432 48.3159 50.6219 48.901 49.583 49.3463C49.2171 49.5031 48.6831 49.8344 48.6325 49.2777C48.5293 48.1425 48.8688 46.6774 49.2106 45.5836C49.2855 45.3439 49.4289 44.8951 49.2694 45.4268C49.0188 46.2623 48.2189 47.1579 47.4567 47.5531C47.0152 47.782 46.371 48.043 45.8595 48.043C45.3632 48.043 45.5844 46.3117 45.5949 46.0049C45.6271 45.0594 46.0885 44.0585 46.614 43.2809C46.9551 42.776 47.0547 42.8224 46.6238 43.0163C46.1195 43.2432 45.5811 43.4572 45.0266 43.4572C44.1596 43.4572 44.3398 42.709 44.3701 41.9678C44.3991 41.2567 44.6038 40.6442 44.9678 40.0375C45.205 39.6421 44.2017 40.5652 43.7723 40.7332C42.8325 41.1009 41.9563 41.6117 42.0772 40.2824C42.1654 39.3117 43.3235 38.1031 41.8126 38.5971C40.4178 39.0531 39.0066 39.3912 39.2845 37.3624C39.4377 36.2445 40.1472 35.2748 40.7543 34.364C41.1846 33.7186 41.9529 33.0181 40.8523 33.7859C39.7244 34.5728 38.5887 35.1316 37.3052 35.5595C36.7891 35.7315 37.5981 34.5352 37.6579 34.462C37.9637 34.0883 38.3292 33.7163 38.6084 33.3254C38.916 32.8948 37.7585 33.9562 37.3444 34.2856C35.6084 35.6666 37.2695 33.263 37.8343 32.6982" stroke="#CABB94" stroke-width="2" stroke-linecap="round"/>
<path d="M51.4154 59.1547C53.0285 57.5417 48.3645 62.73 46.3005 63.7013C46.2848 63.7087 47.412 60.5421 47.5547 60.1346C47.8687 59.2383 48.102 58.3185 48.3778 57.4106C48.5013 57.0039 48.5347 56.8748 48.123 57.1558C46.6713 58.1467 45.2152 59.0065 43.6352 59.7818C42.8515 60.1664 41.9522 60.6353 41.0484 60.5657C40.2091 60.5012 41.2755 56.7854 41.4991 56.2543C41.6328 55.9369 39.9636 57.1938 39.8333 57.293C38.8701 58.0264 37.8578 58.7764 36.7761 59.3311C35.506 59.9824 37.0462 56.9747 37.1681 56.5483C37.2775 56.1654 33.7129 56.6125 33.327 55.9995C32.7523 55.0867 33.2707 54.0651 33.6013 53.1971C33.8014 52.6721 32.8396 53.1406 32.5431 53.2559C31.9204 53.498 31.6612 53.573 31.6612 52.7856C31.6612 52.0082 31.6612 51.2308 31.6612 50.4535C31.6612 49.6666 29.964 51.322 29.6427 50.5417C29.0901 49.1996 30.2502 44.7789 30.2502 46.2302C30.2502 46.9386 28.833 49.4233 29.0351 47.553C29.1792 46.2203 29.757 45.1069 30.4952 44.0157C30.8973 43.4213 31.1826 43.0811 30.3482 43.3592C30.1338 43.4307 29.3879 43.7961 29.3879 43.4082C29.3879 42.7138 29.602 42.0262 29.9758 41.4484C30.3051 40.9396 30.098 41.02 29.7015 41.2623C29.0946 41.6331 28.5346 41.9639 27.8103 42.0364C26.5916 42.1582 27.6964 39.8377 28.1337 39.4005" stroke="#CABB94" stroke-width="2" stroke-linecap="round"/>
<path d="M41.0094 69.2082C41.8451 69.2082 39.5246 69.9766 38.7949 70.384C35.6447 72.1429 32.5828 74.0507 29.4861 75.9007C29.1544 76.0989 26.6353 77.393 26.6934 77.2725C27.9433 74.6836 31.2031 72.5721 33.3272 70.8152C34.7317 69.6535 36.355 68.6753 37.717 67.4836C38.2444 67.0222 36.8891 67.3512 36.7469 67.3758C33.075 68.0114 29.9101 70.2711 26.2917 71.07C25.4726 71.2508 26.1338 70.4858 26.3701 70.1293C27.2621 68.7835 28.2083 67.4903 29.0353 66.102C29.3491 65.5754 29.7972 65.0617 29.976 64.4656C30.039 64.2556 29.6769 64.5548 29.6625 64.5636C29.0666 64.9282 28.4736 65.2948 27.9183 65.7199C27.6879 65.8962 25.3967 67.9979 25.9487 66.4646C26.1089 66.0198 26.4033 65.6512 26.6249 65.2397C26.9369 64.6603 26.7768 65.0215 26.4681 65.2887C26.1399 65.5727 24.8551 66.8718 24.4103 66.7193C23.8928 66.5419 24.862 64.2874 25.0375 63.9365C25.692 62.6274 24.0841 63.5724 23.3325 63.7405C21.5576 64.1375 22.3494 62.7175 21.9411 61.5946C21.9299 61.5638 21.0142 63.0259 20.9024 63.2016C20.4848 63.8579 20.0335 64.489 19.6286 65.1515C19.0486 66.1006 20.0672 62.9616 20.4517 61.918C20.7834 61.0176 19.1643 61.7981 18.7859 61.9376C18.4401 62.0649 18.9003 58.6761 18.7663 58.7432C18.1927 59.03 17.8638 59.6731 17.2769 59.9582C16.9596 60.1123 16.9371 59.5695 17.1201 59.5173C17.4982 59.4093 17.5512 64.409 17.5512 64.9752C17.5512 67.5361 17.202 70.1497 17.3847 72.7063C17.4528 73.6602 18.1972 74.4785 18.6095 75.303C18.9234 75.9307 19.135 76.5592 19.3248 77.2235C19.6476 78.3531 22.5721 75.6519 22.6858 75.5382C23.3725 74.8514 23.9552 74.0943 24.5671 73.3433C25.4742 72.2301 23.9099 74.0356 23.7146 74.2349C23.4632 74.4916 20.5305 78.059 20.1969 76.4788C19.6889 74.0725 20.0205 71.3509 20.0205 68.8946C20.0205 67.832 17.6268 70.1927 17.2965 70.4428C16.9121 70.7338 16.3447 71.3048 15.8267 71.3247C15.3874 71.3416 15.6062 69.8505 15.6307 69.5805C15.7095 68.7136 16.492 66.0857 16.8457 68.3263C17.3723 71.6614 16.9781 75.1973 17.7374 78.4876C17.9335 79.3373 18.4752 80.1223 19.4326 80.1436C22.9568 80.2219 26.5691 77.9244 29.7604 76.6944C34.0969 75.0231 38.2837 73.2207 42.4988 71.2659C43.8008 70.6621 45.1254 70.1879 46.4771 69.7373" stroke="#CABB94" stroke-width="2" stroke-linecap="round"/>
<path d="M18.7856 55.8036C19.4491 53.8869 19.3414 52.0604 21.1177 50.6789C22.68 49.4637 24.4263 48.5158 25.9975 47.3179C28.8139 45.1706 30.9078 42.3969 33.3661 39.8905C34.4496 38.7857 35.0123 38.393 35.0123 36.8333C35.0123 34.7853 35.624 33.0968 36.776 31.395C38.1622 29.3472 39.7349 27.0564 40.7347 24.7711C40.8814 24.4358 41.104 24.4042 40.8523 24.6633C39.6329 25.9185 38.2079 27.0192 36.8348 28.0928C32.7646 31.2754 28.98 34.8049 25.5761 38.695C23.819 40.7031 22.9924 42.71 22.0388 45.1622C21.6563 46.1457 20.7257 49.0983 20.7257 48.043" stroke="#CABB94" stroke-width="2" stroke-linecap="round"/>
<path d="M53.7087 29.8761C53.7087 31.3296 53.7087 32.7831 53.7087 34.2365C53.7087 35.0719 53.3186 36.402 54.4534 36.402C55.318 36.402 55.8675 36.0305 56.619 35.6965C57.0967 35.4842 56.1731 36.5222 56.08 36.6372C55.0881 37.8626 56.178 35.8143 56.178 37.1076C56.178 37.5082 55.9642 38.6183 56.2858 38.9399C56.9205 39.5746 59.2986 35.3301 59.49 34.942C59.5399 34.8408 60.5281 32.7114 60.5482 32.7373C60.8014 33.0628 59.4797 34.3666 59.2646 34.6383C58.9136 35.0816 56.8835 36.9819 56.8835 35.4908C56.8835 35.1281 57.1447 31.7668 56.3446 32.4336C55.593 33.0599 55.9604 31.8294 55.4725 31.4635" stroke="#CABB94" stroke-width="2" stroke-linecap="round"/>
<path d="M67.6418 30.2289C69.2194 30.2289 70.797 30.2289 72.3746 30.2289C74.1594 30.2289 71.7586 38.7338 71.4633 39.8121C71.0294 41.3968 69.7583 44.4371 69.7583 44.4371C69.7583 44.4371 72.0772 40.3048 73.2467 38.2443C73.6784 37.4836 74.0329 36.6763 74.4911 35.9318C74.9653 35.1613 74.2192 38.5398 74.2069 38.5872C73.5108 41.2922 72.5041 43.9222 71.4731 46.5144C71.4167 46.6561 70.8018 48.5525 70.552 48.5525C70.5189 48.5525 72.2644 45.5703 72.5706 45.2406C73.2219 44.5392 73.2859 44.3006 73.2859 45.3974C73.2859 45.6326 73.2341 46.8251 73.3251 46.5928C73.623 45.8314 73.6386 46.4279 73.6386 46.8476C73.6386 47.1501 73.4778 48.1305 73.913 48.2096C75.2458 48.4519 76.5227 47.4158 77.5385 46.7104C78.4561 46.0732 79.4571 45.2628 78.9299 46.9064C78.7275 47.5376 78.0009 48.7672 78.6164 47.3767C78.9362 46.6542 79.7645 45.4602 80.5173 45.0838C80.7763 44.9543 81.4322 45.221 81.752 45.221" stroke="#CABB94" stroke-width="2" stroke-linecap="round"/>
<path d="M81.7523 45.2209C81.7523 48.0651 81.45 51.2402 82.4578 53.9613C83.01 55.4522 84.5329 52.6915 84.7409 52.3641C85.3119 51.4653 85.9059 50.5575 86.3969 49.6107C86.5 49.4118 86.6423 48.9996 86.6811 49.5029C86.8001 51.0505 86.5369 52.5341 86.3773 54.0593C86.1587 56.1482 86.5709 53.8671 86.779 53.0892C87.1215 51.8097 87.3963 49.1847 88.9838 49.1011C90.3163 49.031 90.4989 47.7018 90.7083 49.8654C90.8055 50.8701 91.2376 55.0532 92.4231 52.4327C92.7247 51.7661 92.806 50.3795 93.3932 49.885C93.7092 49.6189 94.4283 51.1946 94.5886 51.3549C95.2245 51.9907 95.4827 51.1371 95.5881 50.6102C95.7039 50.031 95.6638 48.3595 95.9506 48.8758C96.1309 49.2002 97.1158 52.353 97.3519 51.982C97.5886 51.6099 97.7696 50.7414 97.8026 50.2966C97.8573 49.5587 98.5564 50.9428 98.6845 51.1001C100.1 52.8396 100.546 50.706 100.938 49.3559C100.94 49.3505 100.927 52.1361 101.702 50.5416C102.349 49.2136 102.653 47.6877 103.016 46.2595C103.3 45.1373 103.094 46.1918 103.094 46.8083C103.094 48.5373 103.852 50.2829 105.602 48.5328C105.925 48.2098 106.557 47.1895 106.357 48.2291C106.266 48.6993 105.936 49.4234 105.936 49.8752C105.936 50.1526 106.34 49.4912 106.504 49.2677C107.687 47.6567 108.766 45.9744 109.973 44.3782C111.305 42.6154 112.759 41.0662 113.677 39.0477" stroke="#CABB94" stroke-width="2" stroke-linecap="round"/>
<path d="M113.324 30.9343C113.324 31.9442 113.138 33.1162 113.324 34.1091C113.442 34.739 115.481 32.7502 114.441 33.9131C112.815 35.7324 110.809 37.2134 109.306 39.1456C108.401 40.31 109.727 38.7912 110.012 38.4401C110.305 38.0792 110.972 36.651 111.56 36.7548C112.27 36.8801 111.885 40.415 111.776 41.027C111.634 41.8267 111.455 41.8942 112.364 41.8697C113.194 41.8473 113.512 41.2192 114.206 40.9878" stroke="#CABB94" stroke-width="2" stroke-linecap="round"/>
<path d="M82.6342 32.6982C82.9396 32.7745 82.8106 33.4351 82.8106 33.6683C82.8106 34.5261 82.3539 34.6383 81.5662 34.6383C80.9955 34.6383 80.2805 34.8195 79.9494 34.2464C79.574 33.5967 79.4211 32.4651 79.9494 31.8555C80.2279 31.5342 81.9097 30.4655 81.7426 31.5517C81.5832 32.5872 79.4599 33.7867 78.7931 32.6198C78.6126 32.3038 77.9829 30.2485 78.8323 30.2485C79.0984 30.2485 78.8219 30.5823 78.7148 30.6209C78.2085 30.8031 77.9033 30.8057 77.6957 30.2289C77.5726 29.887 77.709 28.1212 77.0882 28.2986C76.4578 28.4787 77.2632 27.9304 77.5193 27.7596" stroke="#CABB94" stroke-width="2" stroke-linecap="round"/>
<circle cx="126.935" cy="32.8374" r="5.99686" fill="#CABB94"/>
</svg>
