<svg width="65" height="75" viewBox="0 0 65 75" fill="none" xmlns="http://www.w3.org/2000/svg">
<path d="M47.25 30.1328C47.25 28.0349 48.5662 25.9658 49.332 24.0513C50.4967 21.1395 51.9215 18.406 52.9118 15.4351C53.4231 13.9012 54.1755 12.542 55.323 11.3945C55.6839 11.0336 56.0687 10.7311 56.4011 10.3987C56.5968 10.203 57.3225 9.06056 57.4791 9.76509C57.618 10.3901 57.7671 10.8819 57.7671 11.5426C57.7671 12.2842 57.2503 12.6698 56.9113 13.2461C56.0276 14.7484 54.8025 16.0158 53.6854 17.3361C53.2512 17.8492 52.9014 18.4358 52.5826 19.0231C52.1868 19.7523 51.4896 20.3939 51.0273 21.1052C50.0507 22.6076 48.9919 24.0143 48.1717 25.6231C47.358 27.2191 46.2787 29.0303 45.0281 30.2809" stroke="#CABB94" stroke-width="2" stroke-linecap="round"/>
<path d="M47.3982 31.9103C47.4713 31.2525 48.992 30.4853 49.4967 30.1986C50.7309 29.4973 52.0435 28.6541 53.0929 27.6886C53.9121 26.935 54.6598 25.9456 55.6276 25.3926C57.7171 24.1986 59.627 22.9403 61.9477 22.1667C62.3402 22.0359 62.7803 21.9332 63.1739 21.8458C63.7394 21.7201 63.4853 22.229 63.4043 22.5123C63.1703 23.3312 62.3088 24.4061 61.6926 25.0223C61.4 25.3149 61.1147 25.7364 60.8038 25.9851C60.4398 26.2763 60.2253 25.6298 59.8245 25.5408C58.6116 25.2712 57.5105 25.3926 56.3847 25.3926C55.7592 25.3926 57.6355 25.3926 58.261 25.3926C58.4706 25.3926 59.4089 25.2535 59.3966 25.5737C59.3651 26.392 57.6249 27.3786 56.8784 27.4664C56.6098 27.498 56.3338 27.6576 56.6562 27.8367C57.0835 28.0741 57.1477 28.2465 57.4051 28.5774C58.1411 29.5237 57.4205 29.6884 56.4999 29.6884C54.6667 29.6884 53.368 30.04 51.8091 31.0215C51.753 31.0569 50.8588 31.4537 50.871 31.4659C51.097 31.6919 52.2154 31.3689 52.4675 31.2849C55.0859 30.4121 57.7774 29.3092 59.9562 27.6146C60.4448 27.2346 60.9987 26.3862 61.1412 25.7876C61.2161 25.4733 61.3452 24.7887 61.6185 24.652" stroke="#CABB94" stroke-width="2" stroke-linecap="round"/>
<path d="M30.2152 29.8365C30.2152 29.3209 29.9207 28.9658 29.6556 28.5362C28.7603 27.0851 27.7107 25.6676 26.6272 24.3557C24.7106 22.0349 22.9716 19.5448 21.1958 17.1139C20.175 15.7165 18.9605 14.4356 18.0029 12.9992C17.0942 11.6363 16.6738 9.99948 15.6822 8.71993C14.5631 7.27591 13.3985 5.84445 12.2094 4.45712C11.7338 3.90227 11.1029 3.22365 10.4483 2.87708C8.33473 1.75813 6.15092 1.98831 3.81543 1.98831C3.02287 1.98831 2.78514 1.89606 2.54811 2.69603C2.25218 3.69481 2.51519 5.09053 2.51519 6.13591C2.51519 8.76004 3.64819 10.8022 4.85233 13.0321C5.33796 13.9314 6.36158 14.8368 7.25531 15.3199C7.86766 15.6509 8.49154 16.0042 9.1316 16.2745C9.86219 16.583 10.8009 16.8421 11.4358 17.3114C12.6311 18.1948 13.9612 18.8324 15.139 19.7637C15.9793 20.4281 16.6024 20.5024 17.5914 20.8006C18.9327 21.2051 20.0826 22.3481 21.1794 23.1707C22.1492 23.8981 23.1973 24.6424 24.0761 25.4749C24.6668 26.0345 25.4111 26.7459 25.7714 27.4664" stroke="#CABB94" stroke-width="2" stroke-linecap="round"/>
<path d="M5.32959 15.1718C5.39934 15.7995 6.07006 16.3182 6.54754 16.653C7.79626 17.5288 9.05125 18.047 10.4729 18.5952C12.3261 19.3097 14.6658 20.8006 16.7355 20.8006" stroke="#CABB94" stroke-width="2" stroke-linecap="round"/>
<path d="M10.514 16.3568C10.514 15.5394 10.514 14.7219 10.514 13.9045C10.514 13.6916 10.5019 12.4626 10.6292 12.6536C11.3132 13.6796 12.6684 14.2385 13.5424 15.0895C14.1291 15.6608 14.377 16.3983 14.892 17.007C15.2831 17.4692 16.4903 17.2456 17.0234 17.2456C18.1847 17.2456 19.1863 17.5412 19.9942 18.4389C21.1377 19.7094 22.2597 21.0154 23.1954 22.4466C23.595 23.0576 24.3709 24.1741 25.0306 24.5039" stroke="#CABB94" stroke-width="2" stroke-linecap="round"/>
<path d="M14.3655 15.1718C14.0839 15.1436 13.8493 14.9498 13.6248 14.7932C12.5041 14.0115 11.4484 13.1403 10.3166 12.3738C8.98021 11.4687 7.40821 10.4387 5.8563 9.92143C4.57389 9.49396 7.84065 9.65661 8.04531 9.69101C10.7951 10.1532 13.2907 11.7056 15.9126 12.5795C16.4498 12.7586 17.1151 12.8913 17.6243 13.1309C18.2556 13.428 16.4328 12.4013 15.8714 11.987C13.4939 10.2321 11.5222 7.93946 9.26326 6.03717C8.86155 5.69889 8.44836 5.40909 8.02885 5.09903C7.82629 4.94931 8.06622 4.97081 8.17698 5.01673C8.70206 5.23445 9.11477 5.77348 9.50191 6.16061C13.822 10.4807 17.6624 15.3578 21.6567 19.9777C23.5301 22.1445 25.5621 24.1247 27.8452 25.837" stroke="#CABB94" stroke-width="2" stroke-linecap="round"/>
<path d="M14.3654 17.3937C13.6933 17.3937 13.0212 17.3937 12.3492 17.3937C11.0627 17.3937 9.77613 17.3937 8.48961 17.3937C6.8902 17.3937 5.15952 17.1994 3.61783 17.6982C2.71827 17.9892 1.29573 18.514 1.06672 19.5827C0.944482 20.1532 0.932213 20.737 1.54403 20.9488C3.44457 21.6067 5.46027 21.4788 7.34573 22.3396C9.67322 23.4021 11.66 24.6627 13.3285 26.5694C14.1035 27.4552 13.0297 27.9459 13.1803 28.7996C13.2376 29.1238 15.6751 28.9503 15.8631 28.956C18.8226 29.0456 21.7346 29.7377 24.6521 30.1904C25.6811 30.35 26.8558 30.6874 27.878 30.7253C27.9423 30.7277 28.4688 30.7695 28.2565 30.7088C27.6447 30.534 27.0333 30.1333 26.5119 29.7871C23.0076 27.46 19.8121 24.585 15.5422 24.0513C14.5761 23.9305 14.9114 23.6879 15.7068 24.1253C16.7722 24.7113 17.8821 25.3219 19.0232 25.7547C19.7791 26.0415 20.8347 26.2651 21.4097 26.8739C21.9055 27.3989 19.432 27.319 19.3524 27.3183C15.9925 27.2906 12.774 25.9721 10.119 23.9607C9.05265 23.1529 7.92075 22.4233 6.76144 21.7553C6.12051 21.3859 5.81196 21.1825 5.51058 20.5044C5.1726 19.7439 6.43978 19.309 6.89311 19.1795C7.32725 19.0554 7.35767 19.5665 7.15645 19.8296C6.5181 20.6644 5.55045 20.842 4.65473 21.245C4.23058 21.4359 0.95475 22.3216 1.71684 23.253C2.37414 24.0564 3.58427 24.5053 4.49014 24.9153C6.22678 25.7014 8.04693 26.2976 9.80631 27.0221C10.9329 27.4859 12.2389 27.6779 13.3285 28.2071C13.7934 28.4329 13.9976 28.5033 14.5135 28.5033" stroke="#CABB94" stroke-width="2" stroke-linecap="round"/>
<path d="M29.6229 43.3162C29.6229 42.7694 29.4111 42.7614 28.948 42.4933C27.8822 41.8762 26.6469 41.4873 25.7797 40.5841C24.1444 38.8806 25.8434 40.5122 26.3311 40.0245C26.7795 39.5761 26.4979 38.0561 26.4299 37.531C26.2241 35.9435 25.9196 34.4836 25.9196 32.8732C25.9196 32.1788 25.8393 32.0585 26.5122 32.0585C27.3856 32.0585 27.2325 31.5296 27.3351 30.7089C27.5044 29.3541 27.6689 27.9922 27.8782 26.6435C27.9587 26.1251 27.944 25.4882 28.6189 25.7219C29.2145 25.928 29.298 26.4698 30.0014 26.4296C30.4581 26.4035 30.68 25.7908 30.9066 25.475C31.3499 24.8573 31.8721 24.258 32.4044 23.7139C32.9268 23.1798 33.4627 22.282 34.2807 22.282C34.891 22.282 34.6592 24.0263 34.6592 24.4216C34.6592 24.7866 34.4698 25.4941 35.0295 25.3762C35.7418 25.2263 36.3246 24.9483 37.0951 24.9483C37.5222 24.9483 37.882 24.885 37.918 25.4256C37.9308 25.6162 37.9608 26.7109 38.2143 26.7258C38.8212 26.7615 39.2131 26.0679 39.7861 25.9194C40.1725 25.8192 41.5015 25.4376 41.8517 25.7877C42.4814 26.4174 41.9581 27.9109 42.8392 27.9109C44.3304 27.9109 45.1763 28.3235 45.1763 29.9847C45.1763 30.7229 46.0137 31.3875 46.4354 31.9186C47.0877 32.7399 47.9829 33.4349 48.2706 34.4779C48.4249 35.0373 48.59 35.7418 48.287 36.2719C48.0556 36.6769 48.0992 36.0119 48.1471 35.844C48.219 35.5923 48.8853 35.6013 49.0935 35.6136C50.0199 35.668 50.0525 37.5397 50.0646 38.214C50.0833 39.2596 50.0873 40.3119 50.0646 41.3576C50.0528 41.9017 49.7683 42.3389 49.7683 42.8719" stroke="#CABB94" stroke-width="2" stroke-linecap="round"/>
<path d="M29.6226 39.613C29.6226 37.7917 29.4525 35.8901 29.6967 34.0829C29.8687 32.8099 30.0378 32.5248 30.7418 33.7372C30.8696 33.9574 31.6089 35.5516 32.075 35.128C32.8032 34.466 32.711 32.7696 33.0954 31.9103C33.7597 30.4253 33.6722 34.2016 34.3956 33.9512C35.1731 33.6821 36.4365 32.2006 36.4365 33.9841" stroke="#CABB94" stroke-width="2" stroke-linecap="round"/>
<path d="M36.2885 35.1691C35.3826 35.1691 34.0787 34.6304 33.3589 35.3502C32.8291 35.88 32.5853 37.2818 32.5853 37.9836C32.5853 39.1848 32.5318 40.2839 32.5853 41.4893C32.6336 42.5746 33.1275 43.7079 33.507 44.7152C33.6304 45.0426 33.9868 46.1396 34.4452 46.2706C36.0259 46.7222 34.9096 35.6498 35.1117 34.4367C35.1472 34.2238 35.1582 35.4608 35.1035 35.7617C34.9045 36.8564 34.3629 37.8123 34.3629 38.9464C34.3629 39.8333 34.2942 40.5125 34.6591 41.2424" stroke="#CABB94" stroke-width="2" stroke-linecap="round"/>
<path d="M48.4352 38.2798C48.4352 40.596 48.313 42.7584 47.6945 45.0114C47.5923 45.3839 46.2378 48.5929 46.8387 49.0603C47.0268 49.2066 47.6582 47.6146 47.6945 47.4967C48.0692 46.2789 48.2233 45.0405 48.5092 43.8017C48.8363 42.3844 49.0277 40.7787 49.0277 39.3167" stroke="#CABB94" stroke-width="2" stroke-linecap="round"/>
<path d="M44.8801 48.3525C44.8468 48.6183 44.2355 49.1015 44.0407 49.3318C43.2755 50.2362 42.412 51.1587 41.5554 51.9735C40.8867 52.6095 40.1413 53.1809 39.4158 53.751C39.1705 53.9437 38.7883 54.4669 38.8068 53.9485C38.8299 53.3011 39.1102 52.6578 39.3252 52.0557C39.5185 51.5145 39.3579 51.4874 39.5804 51.9076C39.9826 52.6674 41.847 51.1803 41.4073 51.167C39.1631 51.099 37.2458 51.1666 35.2188 50.0149C34.7748 49.7626 34.2354 49.7021 33.8445 49.3894C33.7035 49.2766 33.8852 49.2257 33.9926 49.2495C34.1962 49.2948 34.2373 49.5461 34.3629 49.6857C35.184 50.5979 35.8355 51.6685 36.7001 52.533C36.975 52.808 36.9002 52.0513 36.8647 51.8912C36.7278 51.2755 36.4111 50.7073 36.1734 50.1301C36.0549 49.8423 36.6945 50.1773 36.7248 49.9655C36.8856 48.8396 37.0633 47.6535 37.5395 46.6079C38.5891 44.3028 40.1507 42.2335 40.8477 39.794C40.9669 39.3767 41.0287 38.7988 41.0287 38.3621C41.0287 37.6279 40.9365 38.1298 40.7654 38.609C40.3404 39.7988 39.709 40.6414 39.0701 41.6867C38.6431 42.3855 39.3247 41.9291 39.7449 41.6209C40.3549 41.1736 40.8935 40.8197 41.325 40.1725C41.533 39.8606 42.5697 37.7409 42.6911 37.9835C43.0543 38.7101 43.0376 40.0849 43.1025 40.8803C43.1934 41.9933 43.5211 43.1298 43.5469 44.2379C43.5889 46.0453 44.3477 42.9555 44.4357 42.4274" stroke="#CABB94" stroke-width="2" stroke-linecap="round"/>
<path d="M42.2134 37.8354C43.0637 37.8354 43.9141 37.8354 44.7645 37.8354C46.4693 37.8354 48.5912 37.5667 50.1959 38.2633C53.117 39.5314 54.2871 43.3441 54.9524 46.1717C55.0311 46.5061 54.7879 45.1611 54.722 44.9455C54.558 44.4088 54.2616 43.9561 53.9896 43.4725C53.5045 42.6101 53.4711 41.8428 53.4711 40.7979" stroke="#CABB94" stroke-width="2" stroke-linecap="round"/>
<path d="M43.5468 50.2782C44.1044 50.6837 45.9168 49.9589 45.9168 50.8049C45.9168 51.7875 45.9689 52.2832 45.0281 52.7964C44.4838 53.0933 44.2015 53.6397 43.6126 53.9073C43.331 54.0354 41.595 54.856 41.9503 54.8702C42.2569 54.8824 42.4279 54.7221 42.7238 54.7221C43.0995 54.7221 42.3329 55.3854 42.2054 55.5368C41.8693 55.9359 40.052 57.7527 41.5059 57.1579C42.7467 56.6503 43.7166 55.7208 44.6577 54.7797C44.8084 54.629 45.7869 52.7141 45.7358 52.7141C45.523 52.7141 45.0923 53.4728 44.9458 53.6193C44.4962 54.0689 44.113 54.3649 43.5468 54.648C41.7829 55.5299 39.792 55.9071 37.8191 55.9071C36.5683 55.9071 35.3174 55.9071 34.0665 55.9071C33.7839 55.9071 33.0745 56.4471 33.3588 56.7629C33.8088 57.2629 35.5372 57.2402 36.2062 57.2402C36.5148 57.2402 36.6027 57.2577 36.2226 57.3555C35.6278 57.5084 34.9988 57.6976 34.3957 57.7998C33.2697 57.9907 32.1859 58.129 31.0381 58.129C30.7987 58.129 29.4547 57.9167 30.2152 57.5365" stroke="#CABB94" stroke-width="2" stroke-linecap="round"/>
<path d="M35.9923 52.9446C35.7115 56.0336 33.152 59.3465 30.5609 60.8612C29.0992 61.7158 27.6809 62.5891 26.4792 63.7909C26.1648 64.1052 25.8956 64.4852 25.5657 64.7784C25.3627 64.9589 25.7046 64.6335 25.8373 64.5809C27.0414 64.1038 28.0308 63.3275 29.0303 62.54C29.4615 62.2003 29.5438 61.5353 28.9644 62.2273C27.3183 64.1936 25.911 66.2588 24.5206 68.4076C24.132 69.0081 23.7794 69.674 23.3191 70.218C23.1637 70.4016 22.4768 71.1523 22.5209 71.3948C22.6181 71.9299 23.0751 73.9595 22.0682 73.3123C21.7246 73.0914 21.2369 72.6434 21.0313 72.2836C21.0142 72.2536 21.3824 72.699 21.846 72.802C22.263 72.8947 22.6034 72.9419 23.0393 72.9419C23.7294 72.9419 23.7717 71.8313 23.8458 71.3125" stroke="#CABB94" stroke-width="2" stroke-linecap="round"/>
<path d="M23.5493 53.9814C23.6265 54.6761 24.6145 55.434 25.0306 55.94C25.2607 56.2199 26.3232 57.6682 26.7341 57.6682C26.9489 57.6682 27.2451 57.0414 27.0386 57.1004C26.7685 57.1775 27.3232 57.8647 27.4007 57.9809" stroke="#CABB94" stroke-width="2" stroke-linecap="round"/>
<path d="M22.3644 54.2777C21.5642 53.4774 21.0594 52.4403 20.4552 51.4962C19.8679 50.5785 19.182 49.6904 18.6941 48.7146C17.9009 47.1282 19.2253 48.1361 19.6981 49.0109C19.9675 49.5093 20.249 49.9849 20.5128 50.4922C20.8723 51.1835 21.8075 51.6588 22.3974 52.1381C23.1446 52.7452 23.7557 53.4517 24.3642 54.1954C24.8056 54.735 24.754 54.6466 24.142 54.3106C22.4127 53.3612 20.8889 51.3666 19.5171 49.9491C19.042 49.4582 18.2571 48.0563 17.4762 48.0563C15.7667 48.0563 15.8468 43.664 15.8468 42.4274C15.8468 41.6318 16.3182 40.8576 16.6697 42.0982C16.9202 42.9824 16.9389 43.9293 17.1141 44.8304C17.2777 45.6718 17.1739 46.5794 17.361 47.398C17.5296 48.1356 17.4762 47.0163 17.4762 46.8548C17.4762 45.699 17.4556 44.5975 17.1799 43.4643C16.9252 42.4169 16.7222 41.3563 16.5216 40.296C16.4762 40.0563 16.2623 38.9903 16.4722 38.7571C16.9119 38.2686 19.1946 40.154 19.5335 40.3865C21.3375 41.6242 23.5761 42.0642 25.5903 42.8389C26.0709 43.0237 25.0876 42.7692 24.8662 42.6414C23.9791 42.1296 23.3392 41.5194 22.5619 40.8803C21.9531 40.3797 20.0025 38.8832 21.3275 40.6499" stroke="#CABB94" stroke-width="2" stroke-linecap="round"/>
<path d="M30.9558 45.5381C29.913 45.5381 28.9878 45.5898 28.0097 45.176C27.4647 44.9454 26.9537 44.7975 26.3638 44.7975C25.4556 44.7975 25.8307 45.6717 26.0676 46.2047C26.3872 46.9239 27.9649 46.1195 28.3636 45.9084C28.5704 45.7989 29.4035 45.6999 29.0631 45.6862C28.3333 45.6571 27.5346 45.422 26.8247 45.2419C26.289 45.1059 24.2599 44.2057 23.7304 44.6823C23.3315 45.0413 23.5494 46.2508 23.5494 46.7231C23.5494 47.7667 23.5801 48.6983 23.8539 49.7022C24.1292 50.7118 24.5787 51.8785 25.4421 52.5002C25.5037 52.5445 25.9505 53.2431 26.0593 52.8622C26.2101 52.3347 26.0676 51.5686 26.0676 51.0106C26.0676 50.6289 25.6813 46.8877 25.5491 46.8877C25.4042 46.8877 25.4751 48.3883 25.4751 48.5007C25.4751 49.9202 25.5638 51.2617 26.2815 52.5331C26.8021 53.4553 27.4166 54.2777 28.5035 54.2777C28.9353 54.2777 29.427 54.3469 29.8531 54.2695C29.9422 54.2533 30.8187 53.9105 30.5773 53.8415C29.6402 53.5738 28.867 52.9203 27.9439 52.6565C27.5093 52.5324 28.6755 53.1893 29.0631 53.4218C29.6218 53.7571 30.159 54.1649 30.7748 54.3929C31.2647 54.5744 32.2375 55.3558 32.6593 55.0183C33.328 54.4834 31.9167 54.2777 31.9927 54.2777" stroke="#CABB94" stroke-width="2" stroke-linecap="round"/>
<path d="M27.697 51.7595C28.853 51.7595 29.0144 49.7759 29.2112 48.9451C29.3296 48.4453 29.3264 48.5826 29.3264 49.0109C29.3264 49.713 29.2371 50.4805 29.4087 51.167C29.7011 52.3367 30.5112 51.7812 30.9558 51.0189C31.3924 50.2706 31.5226 49.3541 31.9927 48.6488" stroke="#CABB94" stroke-width="2" stroke-linecap="round"/>
<path d="M24.2902 32.651C23.9206 32.651 21.4574 32.4398 21.4757 32.651C21.5535 33.5453 22.4728 34.7184 22.957 35.4654C23.3374 36.0523 23.5513 36.2583 22.8418 35.7617C22.3139 35.3922 21.7882 35.0134 21.2947 34.6096C21.1382 34.4815 21.4178 35.9384 21.5416 36.1567C21.7439 36.5137 22.3645 37.2465 22.3645 37.6874C22.3645 37.8369 21.7523 38.1086 21.6238 38.2799" stroke="#CABB94" stroke-width="2" stroke-linecap="round"/>
<path d="M20.2907 37.5392C19.5053 37.5392 18.6806 37.361 18.0358 36.8808C17.73 36.6531 17.1174 35.9932 16.6533 36.2389C16.3826 36.3822 18.6704 37.8747 19.1056 37.9835" stroke="#CABB94" stroke-width="2" stroke-linecap="round"/>
<path d="M15.4022 36.5022C14.716 36.5709 14.0732 37.2867 13.6576 37.7696C12.5425 39.0651 11.7989 40.6146 11.2875 42.2299C11.1336 42.7162 9.66339 47.5276 10.4481 47.7518C10.9991 47.9092 12.0394 47.2579 12.4067 46.9042C13.2904 46.0532 13.6247 45.0009 13.6247 43.7935C13.6247 43.5924 13.4879 42.2564 13.1803 43.1022C13.0942 43.339 12.6254 44.7429 12.6207 44.7316C12.4047 44.2186 12.5878 43.3072 12.5878 42.7566C12.5878 41.761 12.5164 40.7789 12.8182 39.8187C13.2792 38.3518 14.2068 36.9979 15.106 35.7616" stroke="#CABB94" stroke-width="2" stroke-linecap="round"/>
<path d="M10.9584 48.6488C10.9584 49.8988 9.0875 61.536 10.1437 61.536C11.0162 61.536 11.631 60.048 11.732 59.3305C11.8572 58.4418 12.0484 57.2405 11.7731 56.3597C11.4983 55.4802 11.551 57.7966 11.551 58.0796C11.551 58.4692 11.4121 59.1216 11.732 59.4293C11.9548 59.6434 12.398 59.7091 12.5879 59.4293C13.6714 57.8325 13.4993 55.1725 13.0898 53.4054C12.6468 51.4932 11.8241 49.7875 10.9584 48.0563" stroke="#CABB94" stroke-width="2" stroke-linecap="round"/>
<path d="M11.6991 59.3141C11.6991 60.0273 11.6991 60.7405 11.6991 61.4537C11.6991 62.3198 11.4923 63.4784 11.732 64.3175C11.827 64.65 12.0578 64.9879 12.4397 64.943C12.7042 64.9119 12.884 63.9886 12.9993 63.7579C13.1432 63.4702 13.0842 62.903 13.5096 63.0502C13.9987 63.2195 14.1804 63.64 14.3983 64.0542C14.7088 64.6442 15.4417 64.4986 15.9948 64.4986" stroke="#CABB94" stroke-width="2" stroke-linecap="round"/>
<path d="M37.8086 35.0426C38.5543 35.0426 39.2619 34.9995 39.9989 34.8644C40.3256 34.8045 42.2523 34.1697 42.5076 34.546C42.7941 34.9682 42.6223 35.85 42.6223 36.3479C42.6223 36.5926 43.1005 35.8808 43.2844 35.7303C44.0067 35.1393 44.6108 35.1547 45.2583 35.7303C45.5331 35.9746 45.9285 35.8783 46.2389 36.0232C46.7014 36.239 46.9501 36.276 47.3213 36.6472" stroke="#CABB94" stroke-width="2" stroke-linecap="round"/>
<path d="M39.0691 46.6184C40.5381 46.6184 42.0289 46.7008 43.4943 46.612C43.6597 46.602 44.3294 46.3495 44.3412 46.6439C44.3547 46.9825 44.3256 47.2835 44.2266 47.6053C44.0663 48.1264 43.8946 48.6752 43.3097 48.8215C42.6562 48.9848 42.0895 48.9812 41.8452 48.2484C41.71 47.8427 41.9187 47.7554 41.5905 48.1656C41.3386 48.4806 40.8941 48.8671 40.559 49.0825C39.1038 50.018 37.4932 46.9479 37.6938 46.8476" stroke="#CABB94" stroke-width="2" stroke-linecap="round"/>
</svg>
