<svg width="70" height="66" viewBox="0 0 70 66" fill="none" xmlns="http://www.w3.org/2000/svg">
<path d="M28.2797 32.6973C29.3213 30.9916 29.7354 30.2218 29.2417 29.9912C27.8806 29.3556 26.024 33.2584 24.8092 34.0682C26.0029 34.1659 27.6728 33.6911 28.2797 32.6973Z" fill="#CABB94"/>
<path d="M22.7436 35.5025C23.0791 35.3385 24.318 34.3957 24.8092 34.0682M24.8092 34.0682C26.0029 34.1659 27.6728 33.6911 28.2797 32.6973C29.3213 30.9916 29.7354 30.2218 29.2417 29.9912C27.8806 29.3556 26.024 33.2584 24.8092 34.0682Z" stroke="#CABB94" stroke-linecap="round"/>
<path d="M19.5223 35.2659C19.3509 35.5875 18.4144 37.0891 19.3581 36.3396C19.5092 36.2196 19.8573 35.7121 20.0441 35.6685C20.1082 35.6535 19.9486 36.0736 19.9364 36.1152C19.8416 36.44 19.7182 36.7879 19.569 37.092C19.4982 37.2362 19.1887 37.8409 19.3727 37.9389C19.6968 38.1116 20.1302 37.7682 20.3491 37.5415C20.7197 37.1576 21.0019 36.7254 21.386 36.3606" stroke="#CABB94" stroke-linecap="round"/>
<path d="M19.437 33.8949C19.7363 33.3331 20.0356 32.7713 20.3349 32.2095C20.611 31.6913 21.0067 31.5764 21.5066 31.3497C21.8966 31.1729 22.2437 31.7128 22.153 32.0396C21.9407 32.804 21.7331 33.5045 21.4009 34.2275C21.1943 34.6772 22.2302 33.6776 22.5891 33.3368C22.7086 33.2233 23 33.1279 23.1559 33.1233C23.4729 33.1139 23.2019 33.5261 23.1027 33.7123C22.99 33.9238 22.7616 34.2192 22.7099 34.4603C22.7084 34.4674 23.4447 33.7275 23.5826 33.5771C23.929 33.1992 24.2011 32.7256 24.5577 32.3634C24.8124 32.1046 24.8948 31.7535 25.1174 31.4721C25.5147 30.97 26.039 31.0435 26.592 31.1814" stroke="#CABB94" stroke-linecap="round"/>
<path d="M19.0803 32.2494C18.8764 32.0893 18.9903 29.8978 19.3537 29.736C19.6576 29.6006 19.4489 32.6215 19.9312 31.1883C20.154 30.5263 19.8826 29.3507 20.3616 28.7409C20.6619 28.3586 20.9542 29.2678 20.9667 29.4506" stroke="#CABB94" stroke-linecap="round"/>
<path d="M23.201 28.8905C23.9545 24.8202 24.3034 29.5773 24.6379 28.146C25.0264 26.4833 27.1928 26.6202 26.7039 28.2107C26.1324 30.0703 27.7109 28.2853 28.6878 27.9696C30.9876 27.2264 30.6218 28.5375 30.7402 28.5931C31.1895 28.7926 31.7174 28.7626 32.1822 28.9175L32.1866 28.9189C32.7178 29.0959 33.4621 29.3439 33.9373 29.6749C34.2408 29.8863 32.9352 30.389 33.2199 30.3849C34.6515 30.3641 36.0167 30.3272 37.5204 30.8504C38.2575 31.1069 37.446 31.7188 37.104 31.8442C36.9373 31.9053 36.5334 31.9249 36.4512 32.0793C36.4187 32.1403 37.0491 32.1885 37.1108 32.1952C37.5772 32.2456 38.0316 32.4079 38.4672 32.6399C38.8699 32.8545 38.8615 33.0401 38.7513 33.3393C38.4832 34.0674 37.5087 34.0776 36.8726 34.4611C36.8316 34.4858 37.7773 34.7138 37.9399 34.7209" stroke="#CABB94" stroke-linecap="round"/>
<path d="M32.2253 34.3861C31.5645 35.6265 30.7473 36.7927 30.1574 38.0764C30.0528 38.3041 31.0157 37.6791 31.1176 37.6137C31.3689 37.4523 31.8603 37.2208 32.0527 36.996C32.3837 36.6095 32.6097 35.975 32.7348 35.5242C32.8591 35.0765 32.7908 34.7894 32.4212 34.5925" stroke="#CABB94" stroke-linecap="round"/>
<path d="M29.5385 38.6644C29.3169 38.9444 28.8824 39.1158 28.6084 39.347C28.2496 39.6498 27.9188 39.9819 27.5555 40.2815C27.3824 40.4243 27.2064 40.5252 27.1099 40.7351C27.0981 40.7609 28.4547 40.2435 28.6508 40.1286C29.1895 39.8133 29.7427 39.5352 30.2392 39.1566C30.2751 39.1292 30.6452 38.901 30.5761 39.0132C30.4364 39.24 30.0162 39.3449 29.7947 39.4805C29.1367 39.8836 28.5509 40.3709 27.9631 40.8667C27.8363 40.9737 25.3501 42.9913 25.6621 43.4529C26.0275 43.9934 26.0053 44.8733 25.9001 45.4942" stroke="#CABB94" stroke-linecap="round"/>
<path d="M22.7776 39.4252C22.4289 40.0798 22.0802 40.7344 21.7315 41.389C21.6899 41.4671 21.0869 42.621 21.346 42.6698C28.0125 43.9259 25.5462 36.457 23.4731 40.3486C22.7289 41.7457 22.3068 43.2809 21.5662 44.6712" stroke="#CABB94" stroke-linecap="round"/>
<path d="M20.6144 43.3422C17.382 46.2101 21.4491 43.779 20.7243 44.5654C19.7101 45.6658 18.8629 46.1308 18.1331 47.5007" stroke="#CABB94" stroke-linecap="round"/>
<path d="M18.0506 38.025C18.0929 37.966 18.5399 38.2435 18.3445 38.4329C18.152 38.6194 17.9234 38.7965 17.9477 39.0907C17.9687 39.345 18.0157 39.7491 18.2184 40.0107" stroke="#CABB94" stroke-linecap="round"/>
<path d="M23.3663 37.6193C23.7199 37.831 24.3272 38.521 24.7615 38.1474C25.0531 37.8965 25.1835 36.9459 25.5579 37.62C25.6563 37.7972 26.1876 38.9119 26.4916 38.4403C26.564 38.328 27.4309 36.5404 27.4708 36.549C27.8645 36.6334 27.8521 37.2477 28.1973 36.7377C28.7761 35.8824 29.0976 34.8988 29.5786 33.9958C29.6172 33.9234 29.6549 34.2462 29.6817 34.334C29.7917 34.6949 29.8719 34.5836 30.0457 34.2673C30.4388 33.5519 30.8136 32.8259 31.1974 32.1054" stroke="#CABB94" stroke-linecap="round"/>
<path d="M31.2227 29.5701C31.4933 29.7142 31.7639 29.8584 32.0345 30.0025C32.3699 30.1812 32.0924 30.4898 31.9122 30.753C31.4178 31.4755 32.1065 30.8759 32.4598 31.3732C32.6991 31.7102 32.1125 32.3453 32.4072 32.8009C32.6375 33.1569 32.2981 33.5458 31.9975 33.8571" stroke="#CABB94" stroke-linecap="round"/>
<path d="M27.9894 42.529C28.3152 42.7025 28.6361 42.8917 28.9689 43.0508C29.5434 43.3255 30.11 42.1847 30.2998 41.8283C30.5734 41.3148 30.7825 40.7917 31.0266 40.2727C31.2082 39.8863 31.4907 40.5556 31.5546 40.6956C31.6121 40.8215 31.9501 41.5244 32.1416 41.4331C32.4462 41.2879 32.6392 40.6904 32.7828 40.4209C33.0051 40.0036 33.1383 39.6065 33.2606 39.1518C33.4421 38.4767 34.0899 40.4313 34.272 39.9115C34.415 39.503 33.9578 38.2587 34.6083 39.0994C35.0945 39.7279 35.0948 37.6434 35.2067 37.4018C35.3183 37.1611 35.4029 37.3798 35.5928 37.3469C35.8909 37.2953 35.9592 37.1376 36.0922 36.8879C36.126 36.8244 36.3311 36.2878 36.3672 36.2868C36.5804 36.2804 36.7262 36.312 36.8893 36.1571" stroke="#CABB94" stroke-linecap="round"/>
<path d="M34.8877 34.1731C35.0222 34.2448 35.7533 34.5157 35.7851 34.6682C35.8483 34.9717 35.0618 35.1458 34.8988 35.3006" stroke="#CABB94" stroke-linecap="round"/>
<path d="M39.8413 32.5301C44.4263 33.3957 52.7211 27.0937 57.536 26.0002C60.6187 25.2996 64.7267 22.8885 65.0001 23.5004C65.4992 24.6172 61.4042 29.9052 60.6187 30.5711C59.6143 31.4225 56.3207 33.5483 57.5358 33.0409C59.4588 32.2378 59.7243 33.0685 58.1421 34.1569C55.1157 36.2386 52.056 37.1875 48.6306 38.2318" stroke="#CABB94" stroke-linecap="round"/>
<path d="M39.8427 35.5894C41.6304 36.5417 55.0365 42.9092 51.6842 38.6573" stroke="#CABB94" stroke-linecap="round"/>
<path d="M40.963 35.1219C41.4779 35.3962 42.1578 35.4229 42.7205 35.4804C44.8554 35.6985 47.0203 35.8179 49.1662 35.8102C50.3415 35.806 51.4532 35.7217 52.5927 35.4492C52.8086 35.3975 53.1078 35.2746 53.3172 35.2801" stroke="#CABB94" stroke-linecap="round"/>
<path d="M49.4536 32.8589C51.1893 32.4281 52.7969 31.6222 54.4223 30.8896C57.0867 29.6888 58.1304 29.3034 60.4882 29.5613" stroke="#CABB94" stroke-linecap="round"/>
<path d="M53.4097 32.5891C54.1658 32.9919 54.5983 33.834 55.3795 34.2502" stroke="#CABB94" stroke-linecap="round"/>
<path d="M40.1787 33.7651C42.7394 34.8629 52.1267 31.4383 47.3762 34.1058C45.1134 35.3765 54.022 33.2283 53.7753 34.475" stroke="#CABB94" stroke-linecap="round"/>
<path d="M30.3754 26.9633C33.0521 26.1472 35.4056 23.0868 38.1362 22.4402C39.3654 22.1491 40.5907 22.084 41.809 22.4143C44.0095 23.0109 39.3699 23.8228 39.8847 23.8361C40.5465 23.8532 41.1111 23.8996 41.6881 24.2361C42.2895 24.5867 38.7472 26.7786 38.4148 26.9783L41.2869 27.5697C42.71 27.6428 42.5571 28.9791 42.0809 29.2943C41.9273 29.3959 38.0534 29.376 37.8843 29.4563C37.6315 29.5764 40.7439 30.461 40.9114 30.5894C41.6632 31.1657 39.1266 31.6252 39.1266 31.6252" stroke="#CABB94" stroke-linecap="round"/>
<path d="M35.4226 27.5189C36.4063 28.043 37.8376 28.6935 38.9481 28.1736" stroke="#CABB94" stroke-linecap="round"/>
<path d="M33.3515 26.6672C39.6876 25.9444 31.8595 25.9003 38.5544 23.8535" stroke="#CABB94" stroke-linecap="round"/>
<path d="M38.6478 38.2152C38.3478 38.7785 38.0477 39.3417 37.7476 39.905C37.482 40.4036 37.2165 40.9021 36.9509 41.4007C36.9052 41.4864 36.5949 41.9137 36.6442 42.019C37.0933 42.9783 38.9408 41.0001 37.6513 42.6801C37.2868 43.1551 36.8121 43.6957 36.56 44.2398C36.4687 44.4367 37.0586 43.8685 37.1223 43.769C37.829 42.6646 38.3441 41.5519 38.8259 40.3265C38.9803 39.9338 39.3382 39.1947 38.8705 38.9455" stroke="#CABB94" stroke-linecap="round"/>
<path d="M35.4376 44.05C34.5409 45.3916 32.9134 46.3003 32.1441 47.7444C31.7169 48.5463 33.0593 47.6461 33.2861 47.5145C33.8674 47.1772 34.4205 46.7774 34.8985 46.306C35.2438 45.9654 35.3115 45.4349 35.5333 45.0186" stroke="#CABB94" stroke-linecap="round"/>
<path d="M31.2054 48.9321C31.3076 49.3546 31.1524 49.9112 31.4005 50.2991C31.5922 50.599 32.1879 50.5943 32.3306 50.9136C32.4533 51.1881 31.7694 51.5099 31.6567 51.7214" stroke="#CABB94" stroke-linecap="round"/>
<path d="M27.8455 44.0573C27.3698 44.9502 27.3125 46.096 27.3772 47.2098C27.4734 48.8641 28.2084 47.2026 28.2549 46.3586C28.2665 46.1464 28.2103 46.1945 28.2365 46.3699C28.2668 46.5717 28.5839 48.0721 28.8307 47.6088C29.1896 46.935 29.1681 45.3914 28.8308 44.5002" stroke="#CABB94" stroke-linecap="round"/>
<path d="M27.2266 48.5317C26.8954 49.1535 26.0462 50.5053 26.4728 51.241C26.7637 51.7427 27.9258 49.5107 28.0522 49.2735C28.0733 49.2339 28.613 48.3868 28.6217 48.6289C28.6497 49.4145 27.9523 50.8852 27.5985 51.5494C27.2332 52.2351 26.7051 52.8088 26.5964 53.5483" stroke="#CABB94" stroke-linecap="round"/>
<path d="M27.3409 54C27.6193 54.4162 28.1204 55.2373 28.7074 55.55" stroke="#CABB94" stroke-linecap="round"/>
<path d="M41.2932 55.5913C41.0057 56.131 41.1488 58.1204 41.781 58.4571C41.7877 58.4607 41.8231 56.2889 41.9998 56.5002C42.3102 56.8717 42.5981 59.6753 42.9998 60.0002C43.2498 60.2025 42.6971 60.9511 42.4998 61.0002" stroke="#CABB94" stroke-linecap="round"/>
<path d="M40.2739 51.075C40.0244 51.5432 40.1195 52.2176 40.1834 52.7808C40.405 54.7364 40.4378 54.7251 41.4998 54.5C41.4998 54 41.5205 51.6249 41.4997 51.5001" stroke="#CABB94" stroke-linecap="round"/>
<path d="M41.604 45.5229C41.8029 45.6289 41.7125 45.8555 41.7074 45.9872C41.6845 46.5757 41.525 47.0867 41.3769 47.6306L40.4019 50.1814L41.3769 50.5C41.7512 49.6709 42.4999 47.8103 42.4999 47" stroke="#CABB94" stroke-linecap="round"/>
<path d="M37.5395 45.2715C38.0945 45.5672 39.2943 44.9422 39.7829 44.6541C39.9858 44.5345 40.4606 43.9922 40.7095 44.1055C40.73 44.1148 40.1696 44.1924 40.0247 44.2108C39.513 44.2761 39.0148 44.3929 38.5043 44.46C38.4086 44.4726 38.0408 44.5533 38.0412 44.5532C38.5423 44.3573 39.2955 44.5903 39.8006 44.6635C40.4885 44.7632 41.1039 45.107 41.7784 45.2357C42.1104 45.299 42.3901 45.4086 42.6846 45.5655" stroke="#CABB94" stroke-linecap="round"/>
<path d="M43.2721 38.1711C43.5611 38.5031 43.8582 38.8595 44.0692 39.2469C44.2414 39.5628 44.0512 39.5717 43.7411 39.4995C43.4305 39.4271 43.1301 39.272 42.8505 39.1231C42.6099 38.9949 42.9867 39.4172 43.0203 39.4649C43.1303 39.6211 43.9061 40.7584 43.4339 40.7462C43.1959 40.7401 42.9316 40.6409 42.7155 40.5421C42.6787 40.5252 42.449 40.3617 42.4738 40.4862C42.4958 40.5969 43.1016 41.9731 42.8276 42.0071C42.5388 42.0431 42.1775 41.7966 41.9389 41.6695C41.7614 41.5749 41.5838 41.4803 41.4063 41.3857C41.1261 41.2365 41.8698 41.822 42.0716 42.067C42.2438 42.2761 42.3356 42.6235 41.9737 42.6283C41.3531 42.6366 40.7107 42.3476 40.1399 42.1442C39.7625 42.0097 39.3889 41.8901 39.0167 41.7419" stroke="#CABB94" stroke-linecap="round"/>
<path d="M42.8781 44.4327C43.4217 44.7223 43.9599 45.0191 44.4929 45.3281C44.7114 45.4547 44.9357 45.5708 45.1471 45.7093C45.1583 45.7166 45.361 45.8863 45.364 45.8072C45.3704 45.6358 45.299 45.4438 45.2785 45.2739C45.2453 44.9988 45.2094 44.7285 45.1587 44.4559C45.1272 44.287 45.1142 44.1167 45.0904 43.9468C45.0669 43.7789 45.277 43.9587 45.3313 43.9997C45.6854 44.2674 47.0317 45.5983 47.5137 44.9763C47.8531 44.5384 47.3091 43.5475 46.988 43.1928C46.8559 43.0469 47.3376 43.3736 47.5131 43.4625C47.8218 43.6187 48.2251 43.742 48.5417 43.5327C49.1935 43.102 48.6518 41.9828 48.2677 41.5364C48.2373 41.5011 48.1632 41.4556 48.2507 41.5022C48.3994 41.5814 48.549 41.6567 48.7057 41.7194C48.8693 41.7849 49.2357 41.9453 49.4154 41.8737C49.6252 41.7902 49.4186 41.5052 49.353 41.4056C49.1742 41.1338 49.0435 41.0194 48.7594 40.8681" stroke="#CABB94" stroke-linecap="round"/>
<path d="M51.5202 41.2074C51.4869 41.1896 51.5865 41.2436 51.618 41.2645C51.8196 41.3986 51.9823 41.5973 52.0862 41.8156C52.2327 42.1236 52.1551 42.5584 51.7662 42.5578C51.5721 42.5575 51.3917 42.5071 51.2125 42.4363C51.1992 42.4311 51.0073 42.3331 51.0471 42.3834C51.2797 42.6776 51.6199 42.8502 51.8023 43.198C51.8492 43.2875 51.9907 43.5566 51.8114 43.6152C51.5882 43.688 51.2543 43.5126 51.0039 43.5546C50.3257 43.6684 50.5144 44.5058 50.737 44.9335C50.7672 44.9916 50.8796 45.2326 50.7128 45.177C50.3924 45.0703 50.0981 44.8847 49.8013 44.7266C49.6709 44.6572 49.4899 44.4981 49.4302 44.72C49.3134 45.1544 49.5543 45.6538 49.6255 46.0761C49.6301 46.1033 49.7317 46.5191 49.663 46.5436C49.4866 46.6067 49.09 46.2937 48.9449 46.2163C48.7988 46.1385 48.556 45.9106 48.4489 46.1231C48.3337 46.3519 48.5212 46.7738 48.5659 47.0126C48.583 47.1039 48.668 47.3422 48.5063 47.3605C48.252 47.3893 47.9149 47.1158 47.6957 46.999C47.5821 46.9385 47.4685 46.878 47.355 46.8175C47.3191 46.7984 47.2713 46.7027 47.2596 46.7416C47.2161 46.8864 47.2841 47.124 47.3175 47.2702C47.4156 47.6997 47.4113 48.0366 47.2054 48.4575C47.0954 48.6823 47.0288 48.8405 46.7464 48.7812C46.4965 48.7287 46.1312 48.5182 45.9485 48.3486C45.8426 48.2502 45.6088 47.8807 45.6925 47.9985C45.7965 48.1449 45.7807 48.6165 45.7951 48.7923C45.8072 48.9398 45.828 49.0717 45.818 49.2118C45.8043 49.4036 45.3562 49.0571 45.2704 49.0081C44.8475 48.7663 44.4861 48.3534 44.1802 47.9773C44.133 47.9192 43.7305 47.4458 43.9054 47.7806C44.1099 48.1723 44.2374 48.5873 44.4021 48.9956C44.4558 49.1286 44.5382 49.3388 44.5346 49.4785" stroke="#CABB94" stroke-linecap="round"/>
<path d="M52.1871 45.1376C52.622 45.8961 52.5972 47.3363 51.8919 47.9571C51.6715 48.1511 51.3292 48.1546 51.0633 48.0588C51.0159 48.0417 50.6508 47.8058 50.6099 47.8575C50.4649 48.0408 50.5734 48.5999 50.563 48.8281C50.5487 49.1401 50.5224 49.4438 50.4321 49.7439C50.3004 50.182 49.7587 49.9008 49.4592 49.7486C49.1101 49.5711 49.426 49.8574 49.5111 50.0477C49.6605 50.382 49.5198 50.5066 49.1358 50.4311C48.9284 50.3903 48.7468 50.2741 48.5627 50.1761C48.3907 50.0845 48.4798 50.1883 48.5431 50.2838C48.5852 50.3473 48.8683 50.8662 48.6806 50.9177C48.6084 50.9374 48.4872 50.8216 48.443 50.8917C48.3903 50.975 48.3406 51.0584 48.3468 51.1572C48.3581 51.3393 48.3712 51.5202 48.3101 51.6933C48.2027 51.9978 48.1227 52.2443 47.7647 52.1696C47.3458 52.0822 46.8928 51.7392 46.5186 51.5309C46.4314 51.4823 46.3023 51.2394 46.2893 51.3383C46.2758 51.4411 46.3703 51.5833 46.4077 51.6729C46.4994 51.8925 46.6382 52.3219 46.5524 52.5671C46.452 52.8536 45.8825 52.6729 45.6963 52.5837C45.4728 52.4766 45.2182 52.3638 45.0158 52.2187C44.8827 52.1232 44.7782 52.0066 44.6322 51.9288" stroke="#CABB94" stroke-linecap="round"/>
<path d="M54.6565 44.9406C54.4158 45.3925 54.7782 46.306 54.8486 46.7832C54.895 47.098 55.119 47.7471 54.8804 48.0258C54.7555 48.1717 54.2753 47.9636 54.1329 47.8878C53.8016 47.7113 53.9831 48.1996 54.0104 48.3891C54.0982 48.9974 53.9265 49.5683 53.364 49.8197C52.9905 49.9866 53.1018 50.8391 53.0581 51.1426C52.9946 51.5841 53.0333 52.0901 52.8202 52.4901C52.5656 52.968 51.8077 52.2671 51.6574 52.524C51.5559 52.6974 51.5717 53.9873 51.2444 53.8419C50.8844 53.6819 50.0966 53.305 49.8684 53.7333C49.4224 54.5705 47.9184 53.5475 47.3289 53.4212" stroke="#CABB94" stroke-linecap="round"/>
<path d="M56.1286 49.9917C56.3206 49.6312 55.9957 50.811 55.8104 51.175C55.5904 51.607 55.3489 51.613 54.8993 51.6263C54.6985 51.6323 54.9568 52.3595 54.9868 52.4823C55.0539 52.7572 54.7365 53.3226 54.5154 53.4974C54.2517 53.7058 54.0829 53.6365 53.9099 53.9611C53.7014 54.3526 53.9344 54.8419 53.7563 55.2263C53.3294 56.1474 51.847 55.5345 51.0526 55.613" stroke="#CABB94" stroke-linecap="round"/>
<path d="M22 27.9999C19.8333 25.8332 16.7 22.5 15.5 22.5C14.3 22.5 10.8333 25.333 10.5 25.9996" stroke="#CABB94" stroke-linecap="round"/>
<path d="M28 27C27.5 24.8333 26.1 20.4 24.5 20" stroke="#CABB94" stroke-linecap="round"/>
</svg>
