<svg width="47" height="47" viewBox="0 0 47 47" fill="none" xmlns="http://www.w3.org/2000/svg">
<path d="M20.4812 13.076C21.3207 13.076 21.9766 12.5746 22.6926 12.188C27.7493 9.45735 30.2678 3.08961 40.9576 1C41.9158 1 39.0986 7.01706 38.3089 7.8506M29.3097 14.2713C30.1371 13.8576 32.8506 11.7737 35.4798 10.2425M23.2828 22.2443C25.7123 22.4757 24.8079 20.1456 27.2605 20.1456C29.9142 20.1456 38.7592 18.4364 37.4636 13.9017C37.2385 13.1139 26.5555 20.2621 25.6267 18.5027C26.5555 15.6148 30.8441 16.2283 37.4636 17.3707C38.4964 17.6002 41.0714 13.186 41.2204 12.0685C41.2985 11.4831 41.2289 10.8413 41.2289 10.2498C41.2289 7.51844 38.4066 8.53807 35.4798 10.2425M23.2828 22.2443C23.8412 22.8647 19.7176 25.5301 21 26.9668M23.2828 22.2443C22.4658 22.1962 19.3735 23.8937 19.3025 24.675C19.2109 25.6832 18.8294 26.6283 19.5591 27.3792M23.9426 15.0607C23.9681 15.1625 27.0893 13.6543 27.5018 13.6543M21.9668 13.9625C23.5152 13.9625 27.5618 11.0417 29.0644 10.2904M29.0644 10.2904C29.2261 10.6497 29.2985 11.3572 29.8501 11.2193C31.6668 10.7651 33.6548 8.41755 35.4798 10.2425M29.0644 10.2904C30.2173 9.37088 35.5 7.5 33.7479 6.18088M30.5837 7.8506C31.1876 7.8506 32.7201 6.50447 33.7479 6.18088M38.987 3.0243C38.3572 4.28372 35.87 5.51283 33.7479 6.18088M29.4551 28.1041C30.0902 28.1041 31.8804 28.3746 31.6254 27.2273C31.5855 27.0476 31.3088 26.7458 31.3129 26.7498C31.5924 27.0293 32.3013 27.5022 32.5369 26.9668C32.6694 26.6657 32.7366 26.3393 32.7366 26.0119C32.7366 25.7531 33.0934 25.8252 33.2835 25.8557C33.3428 25.8651 33.7328 26.015 33.7479 25.9468C33.8269 25.5912 33.4571 25.386 33.4571 25.1047C33.4571 24.8043 34.3335 25.7112 34.0301 24.7141C34.0066 24.637 33.8334 24.291 33.9867 24.2757C34.2997 24.2444 34.6103 24.2382 34.8287 23.9632C34.966 23.7903 34.9418 23.5071 34.9199 23.2991C34.8842 22.9597 34.7943 23.0836 35.1933 23.2166C35.4001 23.2855 35.6694 23.3821 35.4798 23.0516C35.2253 22.6081 34.8954 22.1374 34.5336 21.7755M37.815 22.635C38.0945 22.6815 39.0444 23.4619 38.579 23.7722C38.2807 23.971 37.7303 23.885 37.394 23.885C36.946 23.885 37.1088 23.8819 37.3983 24.1715C37.8757 24.6489 38.2675 25.1926 38.7005 25.7081C38.975 26.0348 38.778 26.0683 38.4053 26.0727C37.7652 26.0802 36.211 25.5503 36.3479 26.6283C36.3685 26.7904 37.0391 28.2537 36.8601 28.2603C36.6495 28.2681 36.4372 28.2603 36.2264 28.2603C36.1967 28.2603 36.3634 28.3442 36.3783 28.3558C36.5525 28.4922 36.7198 28.6835 36.8427 28.868C37.23 29.4489 35.9493 29.1979 35.6274 29.1979C35.3515 29.1979 35.393 29.3496 35.393 29.5885C35.393 29.8621 35.2554 29.8229 35.0023 29.8229M36.6431 31.5418C36.6664 31.3556 38.0022 31.4788 38.1883 31.4637C38.9581 31.4008 38.5563 29.7618 38.3012 29.3889C38.1343 29.1449 38.3369 29.269 38.4878 29.3585C38.8027 29.5451 39.1374 29.6671 39.4992 29.7274C40.0701 29.8226 40.1459 29.39 40.1589 28.9201C40.1703 28.5107 40.6736 28.6611 40.9576 28.651C41.5082 28.6313 41.0861 27.7897 41.2701 27.5137C41.3806 27.3481 42.2044 28.3508 42.1903 27.5919C42.1793 26.9986 41.7073 26.5982 41.409 26.1508M43.5966 29.5885C43.5966 30.6128 44.2421 32.1358 43.3231 32.9134C43.0306 33.1609 42.1336 33.4519 41.7649 33.2172C41.7233 33.1908 41.4871 32.9808 41.4871 33.0002C41.4871 33.2728 41.5443 33.6073 41.4697 33.8683C41.2999 34.4626 40.3096 33.9679 39.9592 33.8423C39.4159 33.6475 39.1244 33.3445 38.9913 34.0767C38.9577 34.2612 38.8633 34.161 38.7178 34.2026C38.6001 34.2362 38.7506 34.4788 38.6267 34.5064C38.2326 34.5939 37.6883 34.0794 37.3939 33.8944C36.9578 33.6203 36.5063 33.3453 36.018 33.1825M25.0016 27.4009C25.4328 27.4548 24.5976 28.7219 25.7482 28.2733C26.0852 28.142 26.3205 27.9084 26.5555 27.644C26.5679 27.6301 26.8308 27.2767 26.8681 27.3792C26.978 27.6815 26.8892 28.0929 26.9722 28.4166C27.1992 29.3016 28.1093 28.4588 28.4697 28.1518C29.1276 27.5914 28.8813 28.5736 28.9125 28.9939C28.9399 29.3646 29.1371 29.701 29.5332 29.4149C29.5825 29.3793 29.9904 28.9877 29.9976 29.0199C30.0654 29.3249 29.9421 29.6441 30.0801 29.9445C30.3999 30.6405 31.2556 29.3108 31.443 29.0894C31.7572 28.718 31.6197 29.865 31.7642 30.092C31.941 30.3699 32.5453 30.4031 32.7191 30.1181C32.8272 29.9408 32.8475 29.7454 32.9709 29.5712C33.0986 29.3908 32.9515 30.1034 32.9318 30.2136C32.9061 30.3578 32.7778 30.6512 32.819 30.7952C32.8641 30.9531 33.2904 30.4865 33.3268 30.448C33.7307 30.0204 33.8382 29.4446 34.0647 30.4219C34.1267 30.6894 34.4675 32.7832 34.8851 32.7832C35.1207 32.7832 35.2764 30.8806 35.3104 30.6086C35.3498 30.294 35.3282 30.5228 35.3539 30.7431C35.4348 31.4394 35.4817 32.1128 35.6273 32.8006C35.6601 32.9552 36.1327 34.0883 36.3305 33.495M26.9028 29.3498C27.5243 29.5984 25.8717 29.4601 24.9556 29.2407M24.9556 29.2407C24.8177 29.2076 24.6965 29.1728 24.6023 29.1371C24.1706 28.9738 23.6998 28.8363 23.2828 28.651C22.8195 28.4451 23.203 28.6052 23.4868 28.6944C23.9784 28.8489 24.4709 29.0369 24.9556 29.2407ZM24.9556 29.2407C25.3615 29.4113 25.7619 29.5929 26.1519 29.7752C26.4999 29.9379 27.0095 30.2917 27.4237 30.2917M27.2675 29.9792C28.2049 30.0285 28.5727 31.8841 28.8822 32.5314C29.4274 33.6719 30.2025 34.5959 30.8441 35.6653C31.3396 36.4912 28.5134 34.6326 27.9446 33.495C27.6986 33.0029 27.4261 32.4971 27.2067 31.9932C27.1419 31.8443 27.2792 33.374 28.1269 35.9171M27.5799 37.1672C27.5799 37.8748 27.5937 39.0055 27.8143 39.6673C28.0983 40.5193 28.7064 41.0881 29.3509 41.6727C30.5393 42.7506 31.6565 44.1182 33.049 44.9411C33.6784 45.313 35.8706 45.8246 35.7792 45.7181C35.5008 45.3932 34.0714 44.0926 33.7782 43.9167M28.9125 37.1672C28.9125 37.3325 29.9018 37.8172 29.9976 38L29.3509 39.6673M23.5953 30.448C23.5953 30.9366 22.9256 33.3343 23.3001 33.6339M23.3001 33.6339C23.3001 34.021 23.5144 38.5708 23.8123 38.8687C25 39 24.6436 34.2891 24.7672 34.5064C25.2562 35.3658 22.4023 41.4297 23 40.5C23.5227 39.6868 23.9549 42.7914 24.7672 43.1484M23.3001 33.6339C24.1457 34.3104 24.7672 30.5056 24.7672 32.8874C24.7672 34.5064 25.2242 34.2026 26 31.5M27.5018 43.1484C27.6727 42.8067 27.7178 42.266 27.7709 41.894M21.2862 29.4149C21.2862 30.5636 19.3373 31.8018 19.3025 31.0552C17.6921 26.6283 19.793 29.4149 21.781 31.5418" stroke="#CABB94" stroke-linecap="round"/>
<path d="M15 26C15 26.4501 15.7336 26.7093 16.0961 26.763C16.1631 26.7729 16.9157 26.4267 16.9171 26.4531C16.9422 26.9042 17.4073 28.087 17.8583 27.1851" stroke="#CABB94" stroke-linecap="round"/>
<path d="M23.4446 25.3938C23.5304 25.4033 23.5709 25.4662 23.636 25.5169C23.8262 25.6648 24.1106 25.7271 24.3438 25.7596C24.8311 25.8276 25.6183 25.9753 26.0909 25.7836C26.6704 25.5484 26.6842 24.9354 26.6105 24.4091C26.607 24.384 26.4487 23.6234 26.4977 23.6125C26.7995 23.5454 27.3765 24.2771 27.5884 24.4433C27.8057 24.6138 28.172 24.8399 28.4568 24.8399C28.9031 24.8399 28.3381 22.2417 28.3679 21.8996C28.3739 21.8305 28.664 22.1752 28.6824 22.1936C28.9217 22.4329 29.1945 22.6359 29.4688 22.833C29.6772 22.9828 30.0866 23.2277 30.3577 23.1646C30.6174 23.1043 30.5834 22.3367 30.5834 22.1424C30.5834 21.8764 30.4428 21.4095 30.8124 21.6193C31.065 21.7626 33.3673 23.3787 33.5032 22.8159C33.6005 22.4125 33.5374 21.9408 33.5374 21.5304C33.5374 21.0475 33.5421 20.568 33.4895 20.0876C33.4539 19.7627 33.4754 19.4232 33.3527 19.1166" stroke="#CABB94" stroke-linecap="round"/>
<path d="M35.8145 19.6704C38.1195 19.6704 40.6284 20.5226 41.8113 22.6518C41.9812 22.9575 41.944 23.2613 42.0335 23.5749C42.0507 23.635 42.2917 23.6217 42.3481 23.657C42.6852 23.8677 43.0008 24.2479 43.1926 24.5903C43.3123 24.8041 43.4133 25.0167 43.5413 25.2228C43.5997 25.317 43.5799 25.4848 43.6439 25.5647C43.8965 25.8805 44.073 26.238 44.2319 26.6109C44.4302 27.076 44.9294 28.0355 44.3687 28.4093" stroke="#CABB94" stroke-linecap="round"/>
<path d="M30.8911 31.671C30.8911 31.8464 31.1046 31.9764 31.2193 32.0881C31.9394 32.7892 32.8623 33.2548 33.7596 33.6848C35.5434 34.5395 37.3601 35.2301 39.353 35.3566C39.562 35.3699 40.3854 35.5038 40.5873 35.3019C40.7268 35.1624 40.7943 35.0931 41.0112 35.0421C41.3638 34.9591 41.7647 34.8947 42.054 34.6558C42.1917 34.542 42.4104 34.0548 42.5566 34.013C42.8839 33.9195 43.2984 35.8451 43.384 36.102C43.4573 36.3219 43.6276 37.5887 43.8456 37.6371C44.0879 37.6909 44.3796 37.1177 44.4781 36.9499C44.7677 36.4565 44.861 35.7838 44.861 35.2267C44.861 34.4207 44.7995 32.0035 44.7995 32.8095C44.7995 33.336 45.7095 33.5844 45.9072 33.0728C46.2752 32.1204 45.4564 30.9126 45.0525 30.112C44.8913 29.7926 44.6951 29.4899 44.5533 29.1615C44.51 29.0613 44.4612 28.9479 44.3687 28.9016" stroke="#CABB94" stroke-linecap="round"/>
<path d="M16.4598 13.0701C16.5838 12.9599 16.782 13.0042 16.9356 13.0042C17.7609 13.0042 18.6082 12.9734 19.3988 13.2494C19.8932 13.422 20.4871 13.6435 20.3028 14.2559C20.1797 14.6649 19.7971 14.9227 19.4574 15.1453C19.3387 15.223 19.0491 15.3719 19.3512 15.3759C20.0749 15.3853 20.8039 15.3423 21.5253 15.4161C22.3872 15.5043 23.1137 15.8145 23.1137 16.7557C23.1137 16.9084 22.9202 17.3493 22.9966 17.3523C23.3861 17.3672 24.1138 17.0175 24.4679 17.1693C24.6202 17.2345 24.3886 18.0404 24.3544 18.1428C24.1477 18.763 23.7826 19.2603 23.4138 19.7898C23.1943 20.105 22.8149 20.4532 22.6525 20.778" stroke="#CABB94" stroke-linecap="round"/>
<path d="M15.9984 14.7171C15.5891 14.7171 15.1916 14.4606 14.8053 14.3511C14.0568 14.1389 12.9393 13.8426 12.386 14.556C12.1099 14.9121 11.6936 15.7676 11.8626 16.2323C12.0307 16.6946 12.8892 16.6276 13.2681 16.6276C13.5976 16.6276 12.9084 16.826 12.7996 16.8911C12.1827 17.2598 11.6121 17.767 11.3246 18.432C11.2283 18.6547 11.0201 19.0945 11.4234 19.0578C12.1829 18.9888 12.9061 18.7252 13.6487 18.5674C14.3699 18.4141 13.9518 19.0367 13.6926 19.4165C12.9291 20.5353 12.0081 21.5719 11.4783 22.8276C11.4441 22.9088 10.8376 23.9784 11.0318 24.0647C11.1388 24.1122 11.3368 24.0571 11.4307 24.0135C12.0199 23.7394 12.5363 23.2913 13.0997 22.9667C13.7542 22.5896 14.4065 22.2079 15.0615 21.8321C15.0957 21.8125 15.3569 21.6218 15.3213 21.7699C15.1988 22.2803 14.8819 22.7581 14.6625 23.2302C14.0452 24.5588 13.5604 25.9399 13.1802 27.355C13.0801 27.7276 12.9679 28.1646 12.9679 28.5518L9.49988 30C9.16655 30.1667 8.59988 30.8 8.99988 32" stroke="#CABB94" stroke-linecap="round"/>
<path d="M7.5 18C7.5 18.458 7.5 20.038 7.5 20.5C7.5 20.5874 7.87529 20.9817 8 21C8.37868 21.0557 8.9597 20.7063 9 20.5C9.04783 20.2551 8.65445 17.4352 8.59804 17.1814C8.57283 17.0679 8.01723 17.4496 8 17.5C7.8227 18.0183 8.36136 20.1656 8.35648 20.7121C8.35301 21.1007 8.3033 21.5972 8.53948 21.9346C9.24259 22.939 9.64245 19.7264 9.65944 19.5373C9.75023 18.5273 9.86918 16.6208 8.59804 16.3275C7.58986 16.0948 7.04617 17.6802 6.88882 18.3917C6.58941 19.7456 6.64142 21.3071 7.23652 22.5568" stroke="#CABB94" stroke-linecap="round"/>
<path d="M6.18259 17.2864C5.12263 17.2864 3.54714 17.0283 2.83736 18.0111C2.67186 18.2402 2.59945 18.6249 2.52992 18.8931C2.42274 19.3065 2.19118 19.6371 1.91504 19.9582C1.62656 20.2936 1.07003 20.7034 0.648682 20.8439" stroke="#CABB94" stroke-linecap="round"/>
<path d="M7.03907 15.7053C6.52452 15.6511 6.04663 15.1849 5.52383 15.0611C5.25037 14.9963 4.83301 14.9806 4.55027 14.9806C4.33126 14.9806 4.11035 14.9728 3.89147 14.9806C3.53942 14.9932 3.1823 15.2501 2.82275 15.31" stroke="#CABB94" stroke-linecap="round"/>
<path d="M7.23648 23.7097C7.23648 23.505 6.87448 23.5375 6.74604 23.6109C6.34525 23.8399 6.89255 26.1385 5.32596 25.3091C4.52825 24.8868 4.58605 27.1432 4.5354 27.4978" stroke="#CABB94" stroke-linecap="round"/>
<path d="M8.5542 24.4673C9.4152 24.4673 10.1696 24.3329 10.5965 23.4791" stroke="#CABB94" stroke-linecap="round"/>
<path d="M8.81763 14.9147C8.85519 14.6142 9.274 15.0735 9.30807 15.1416C9.42877 15.383 9.72102 16.332 10.0327 15.8736C10.2472 15.5582 10.5863 14.7605 11.0575 14.7829C11.4638 14.8023 11.5835 16.7148 11.6505 17.0229" stroke="#CABB94" stroke-linecap="round"/>
<path d="M9.93755 25.8508C9.93755 26.1308 9.88007 26.4933 9.97415 26.7621C10.0835 27.0745 10.7726 26.8953 10.955 26.7584C11.1507 26.6117 11.5453 26.158 11.7858 26.1179C12.0622 26.0719 12.0176 26.4444 12.0457 26.6413" stroke="#CABB94" stroke-linecap="round"/>
<path d="M17.2503 18.0769C18.1951 18.0769 18.3894 18.8603 18.4215 19.702C18.4407 20.207 18 20.4486 17.5504 20.4486C17.3816 20.4486 17.0044 20.4308 17.3967 20.4486C18.1058 20.4808 18.7121 21.4478 18.524 22.1029C18.2968 22.894 17.5207 23.27 17.1185 23.9402" stroke="#CABB94" stroke-linecap="round"/>
</svg>
