<svg width="1226" height="690" viewBox="0 0 1226 690" fill="none" xmlns="http://www.w3.org/2000/svg">
<path fill-rule="evenodd" clip-rule="evenodd" d="M135.072 344.997C141.136 346.1 162.384 350.06 166.541 354.217C168.98 356.656 168.647 359.902 168.304 363.25C167.872 367.458 167.423 371.828 172.441 374.965C181.466 382.742 191.025 389.598 200.584 396.454C207.907 401.706 215.23 406.958 222.315 412.626C230.507 419.18 236.498 429.581 242.518 440.035C253.651 459.364 264.887 478.875 290.347 474.584C302.502 472.535 318.581 463.461 322.387 446.331C323.373 441.893 324.287 438.414 325.2 434.936C326.112 431.461 327.025 427.987 328.008 423.559C328.11 423.104 328.238 422.221 328.403 421.091C329.185 415.723 330.778 404.792 334.083 407.766C337.004 410.395 341.642 416.565 345.819 422.122C348.593 425.813 351.164 429.233 352.895 431.168C360.389 439.544 366.037 449.83 371.088 459.932C375.822 469.4 382.217 478.823 388.675 488.337C398.279 502.487 408.02 516.84 412.636 531.843C421.185 559.627 438.872 588.937 465.289 602.146C471.595 605.299 475.244 605.635 479.319 606.01C482.436 606.298 485.803 606.608 490.801 608.22C496.993 610.217 502.135 616.024 507.122 621.656C510.952 625.98 514.69 630.201 518.743 632.517C534 641.235 561.376 636.242 561.376 610.65C561.376 593.22 556.488 574.039 552.156 557.195C547.788 540.207 539.396 506.394 539.396 488.697C539.396 469.883 570.551 487.515 583.132 500.096C588.037 505.002 593.536 509.658 599.12 514.385C608.808 522.586 618.749 531.003 626.28 541.308C632.946 550.43 643.017 558.947 651.725 566.262C658.057 571.581 668.468 585.773 679.026 600.166C690.137 615.311 701.41 630.679 708.263 636.162C715.271 641.768 725.583 641.598 735.909 641.428C737.683 641.398 739.457 641.369 741.215 641.369C750.233 641.369 763.581 653.562 768.873 660.177C778.735 672.504 813.126 666.534 824.891 656.815C835.252 644.666 839.47 619.936 839.47 610.65C839.47 589.531 824.891 546.261 813.126 532.898C799.221 517.105 793.832 504.608 807.883 495.826C815.813 490.87 841.899 495.826 857.693 500.096C878.346 507.386 897.623 516.611 926.941 532.898C944.784 542.811 966.726 543.836 987.277 544.795C989.044 544.877 990.801 544.959 992.544 545.047C1015.75 546.207 1032.18 535.054 1032.18 511.929C1032.18 494.948 1020.31 475.084 1010.32 458.36C1007.86 454.233 1005.51 450.296 1003.48 446.642C994.372 430.251 1016.81 431.989 1041.66 433.912C1062.61 435.533 1085.27 437.287 1092.16 428.419C1100.1 421.923 1101.1 411.882 1101.93 403.614C1102.49 397.967 1102.97 393.146 1105.53 390.848C1113.87 383.339 1122.29 381.205 1129.62 379.348C1142.3 376.137 1151.69 373.757 1151.69 345.808C1151.69 333.26 1130.94 320.086 1121.79 315.004C1116.66 312.155 1111.54 309.934 1106.57 307.778C1095.71 303.07 1085.55 298.668 1077.58 288.708C1075.3 285.858 1076.3 276.612 1077.04 269.711C1077.33 267.001 1077.58 264.653 1077.58 263.196C1077.58 239.14 1047.78 238.148 1025.28 237.398C1019 237.189 1013.28 236.999 1008.95 236.332C1005.23 235.761 1001.53 235.466 997.865 235.175C989.735 234.529 981.834 233.901 974.649 230.308C972.509 229.238 969.344 228.862 966.189 228.486C959.277 227.664 952.409 226.847 956.456 218.753C959.513 212.641 964.996 206.333 970.573 199.918C977.831 191.569 985.248 183.037 987.684 174.51C999.53 133.049 967.444 133.727 940.629 134.293C937.595 134.357 934.628 134.42 931.8 134.42C913.92 137.671 906.655 141.822 897.794 146.886C893.41 149.391 888.635 152.119 881.99 155.073C880.384 155.786 878.576 156.603 876.598 157.497C853.301 168.023 806.306 189.257 785.345 179.37C776.973 179.862 792.868 151.244 801.144 136.342C803.246 132.559 804.856 129.66 805.453 128.345C808.703 121.196 811.528 97.3066 811.528 89.3136C811.528 54.8082 795.615 55.062 775.194 55.3878C773.172 55.4201 771.106 55.453 769.007 55.453C757.816 55.453 750.894 59.8006 741.858 65.4755C741.284 65.8361 740.701 66.202 740.108 66.5725C712.772 83.6577 680.146 110.616 652.248 133.667C646.824 138.149 641.579 142.483 636.586 146.568C628.31 153.34 606.882 155.606 595.303 156.287C587.412 156.752 588.048 150.729 588.783 143.785C588.939 142.307 589.1 140.787 589.183 139.279C589.592 131.933 595.652 117.107 600.14 111.337C613.804 93.7686 621.581 46.5152 607.349 28.7257C583.132 10.5024 519.359 39.2236 504.165 66.5726C500.713 72.786 495.013 78.2569 489.242 83.7972C480.737 91.9608 472.075 100.275 470.216 111.337C465.681 138.322 439.881 155.842 416.98 171.394C409.916 176.192 403.127 180.802 397.324 185.444C376.884 196.888 374.332 178.823 372.422 165.3C371.789 160.815 371.226 156.83 370.104 154.587C340.076 94.5299 280.628 172.081 269.695 208.527C262.405 223.105 255.209 202.664 253.203 195.644C247.821 176.808 230.48 174.634 216.817 185.564C207.428 193.075 207.247 207.04 207.086 219.347C207.049 222.225 207.013 225.012 206.86 227.604C206.096 240.591 185.671 250.253 172.441 254.033C169.596 254.846 166.762 255.458 163.94 256.068C158.297 257.287 152.696 258.497 147.119 261.285C143.415 263.137 140.127 265.61 136.831 268.089C133.744 270.411 130.651 272.737 127.205 274.561C115.251 280.89 113.625 285.515 111.076 297.455C107.593 297.137 94.7462 298.062 84.3508 298.811C77.9844 299.27 72.5374 299.662 70.7235 299.662L36.6678 295.859C31.5565 295.859 27.9071 293.439 24.2432 291.008C20.5497 288.559 16.8413 286.099 11.6058 286.099C1.17651 286.099 -9.45783e-08 294.641 0 302.572C5.73111e-08 307.378 7.23596 310.29 11.0319 310.29C18.061 310.29 25.0231 311.469 31.96 312.644C38.8473 313.811 45.71 314.973 52.5894 314.973C54.2371 314.973 60.2234 316.002 66.1375 317.018C71.9104 318.01 77.6145 318.99 79.147 318.99C87.0684 318.99 91.3303 318.555 96.314 318.047C99.4797 317.725 102.937 317.372 107.808 317.082C108.464 331.635 122.765 342.76 135.072 344.997ZM1073.08 340.561C1073.83 340.914 1074.73 340.594 1075.08 339.845C1075.43 339.096 1075.11 338.202 1074.36 337.848C1054.57 328.498 1039.33 328.333 1023.91 329.448C1021.56 329.618 1019.21 329.817 1016.84 330.018L1016.83 330.018C1003.7 331.129 990 332.288 972.565 328.856C950.821 324.576 926.334 324.32 903.721 324.083C901.247 324.057 898.794 324.032 896.371 324.001C895.867 323.988 895.357 323.981 894.839 323.981C890.337 323.919 885.834 323.855 881.332 323.79C871.781 323.65 866.372 323.568 857.263 323.425C857.836 318.937 861.046 315.874 865.609 313.289C868.125 311.864 870.952 310.643 873.814 309.435C874.051 309.335 874.288 309.235 874.525 309.135C877.123 308.041 879.736 306.94 882.017 305.722C910.752 290.377 960.668 278.508 993.042 278.508C993.87 278.508 994.542 277.836 994.542 277.008C994.542 276.179 993.87 275.508 993.042 275.508C960.204 275.508 909.799 287.485 880.604 303.076C878.452 304.225 875.966 305.272 873.336 306.38L872.647 306.671C869.797 307.874 866.817 309.156 864.13 310.679C859.174 313.487 854.867 317.315 854.247 323.377C794.304 322.442 736.853 322.297 677.006 322.289C689.917 315.383 700.515 305.933 711.146 296.455C712.232 295.487 713.318 294.518 714.407 293.552C727.771 281.697 741.635 270.12 760.805 263.184C766.981 260.949 773.453 259.601 780.021 258.232C780.412 258.15 780.803 258.069 781.195 257.987L781.505 257.922C788.538 256.45 795.652 254.88 802.327 252.077C812.921 247.628 821.106 240.735 829.033 234.06C830.57 232.766 832.097 231.48 833.63 230.222C843.122 222.43 852.976 215.549 867.202 213.399C871.421 212.761 876.748 210.628 882.385 207.691C888.054 204.737 894.152 200.908 899.942 196.777C905.732 192.645 911.24 188.193 915.722 183.983C920.172 179.804 923.72 175.764 925.472 172.454C925.859 171.722 925.58 170.814 924.848 170.426C924.116 170.039 923.208 170.318 922.82 171.051C921.311 173.903 918.067 177.665 913.668 181.797C909.301 185.898 903.901 190.267 898.2 194.335C892.498 198.403 886.52 202.154 880.999 205.03C875.448 207.923 870.475 209.87 866.753 210.432C851.711 212.706 841.339 220.012 831.726 227.903C830.138 229.207 828.573 230.523 827.014 231.835C820.382 237.414 813.846 242.914 805.95 247.054C809.754 241.259 814.168 234.218 817.247 226.904C821.157 217.617 823.088 207.488 818.464 198.749C818.076 198.017 817.168 197.738 816.436 198.125C815.704 198.513 815.424 199.42 815.812 200.153C819.79 207.67 818.288 216.701 814.482 225.74C811.008 233.993 805.758 241.919 801.603 248.192C801.312 248.631 801.026 249.062 800.747 249.485C794.491 252.054 787.786 253.543 780.891 254.985C780.384 255.091 779.876 255.197 779.368 255.303C772.843 256.662 766.169 258.053 759.784 260.363C740.034 267.509 725.805 279.431 712.416 291.308C711.345 292.258 710.28 293.207 709.218 294.154L709.198 294.172C696.946 305.092 685.135 315.618 669.938 322.419C667.725 323.41 663.935 323.927 659.1 324.069C654.33 324.208 648.758 323.98 643.124 323.608C642.925 323.595 642.725 323.582 642.526 323.568C631.906 322.232 621.152 321.553 614.934 321.553C601.564 321.553 592.933 320.239 584.224 318.844L583.326 318.7C574.87 317.343 566.176 315.948 552.987 315.671C541.6 315.432 520.08 313.906 498.517 312.322C496.112 312.145 493.707 311.968 491.316 311.792L491.306 311.791C473.228 310.458 455.939 309.183 445.596 308.715C445.95 306.279 447.208 303.942 449.328 301.674C451.874 298.95 455.599 296.398 460.252 294.015C469.555 289.248 482.23 285.319 495.606 281.986C507.748 278.96 520.377 276.446 531.459 274.24L531.522 274.228C532.611 274.011 533.685 273.797 534.742 273.586C546.48 271.243 556.302 269.214 561.174 267.242C566.005 265.286 570.675 263.053 575.281 260.852L575.283 260.85C577.074 259.994 578.855 259.143 580.632 258.314C587.017 255.337 593.419 252.616 600.32 250.838C615.792 246.852 629.88 238.165 642.934 227.571L693.806 218.941C694.79 218.935 696.008 218.56 697.372 217.89C698.864 217.157 700.682 215.995 702.811 214.28C707.07 210.849 712.656 205.141 719.46 196.017C719.955 195.353 719.818 194.413 719.154 193.918C718.49 193.423 717.55 193.56 717.055 194.224C710.353 203.211 704.937 208.716 700.929 211.943C698.925 213.558 697.293 214.586 696.049 215.198C694.76 215.831 694.02 215.952 693.753 215.94L693.595 215.934L647.503 223.753C656.865 215.714 665.737 206.795 674.241 198.057C675.692 196.566 677.131 195.081 678.56 193.607C686.793 185.115 694.684 176.975 702.413 170.103C711.313 162.189 721.685 155.504 732.153 148.758L733.454 147.92C744.318 140.914 755.22 133.787 764.334 125.176C764.936 124.607 764.963 123.658 764.394 123.056C763.825 122.453 762.876 122.426 762.273 122.995C753.392 131.387 742.722 138.373 731.828 145.398C731.372 145.692 730.915 145.987 730.458 146.281C721.685 151.935 712.813 157.652 704.806 164.142L718.983 125.825L735.305 103.936C735.8 103.272 735.663 102.332 734.999 101.837C734.335 101.342 733.395 101.479 732.9 102.143L716.319 124.378L700.139 168.111C692.409 175.011 684.521 183.148 676.391 191.534C674.965 193.005 673.532 194.483 672.091 195.964C662.31 206.014 652.143 216.197 641.346 224.995C628.377 235.563 614.579 244.066 599.571 247.933C592.399 249.781 585.797 252.596 579.364 255.595C577.531 256.45 575.718 257.317 573.909 258.182C570.023 260.039 566.159 261.886 562.179 263.577C562.625 255.964 565.212 248.385 567.893 240.609L567.986 240.338C570.87 231.975 573.838 223.366 573.838 214.685C573.838 213.857 573.166 213.185 572.338 213.185C571.51 213.185 570.838 213.857 570.838 214.685C570.838 222.862 568.009 231.066 565.06 239.621L565.057 239.631C562.254 247.761 559.345 256.202 559.125 264.813C554.297 266.551 545.292 268.421 534.154 270.644C533.099 270.855 532.025 271.069 530.936 271.285L530.869 271.299C519.797 273.503 507.096 276.03 494.88 279.075C481.455 282.42 468.505 286.415 458.883 291.345C454.073 293.809 450.012 296.549 447.136 299.626C444.714 302.217 443.091 305.097 442.628 308.274C440.574 307.817 438.495 307.503 436.391 307.38C424.424 301.693 410.213 299.629 395.89 298.967C386.328 298.525 376.591 298.708 367.388 298.88L365.805 298.91C366.894 298.429 367.976 297.909 369.031 297.36C371.653 295.995 374.175 294.415 376.298 292.749C378.403 291.097 380.2 289.295 381.277 287.463C389.773 273.013 407.03 259.721 425.923 246.79C436.623 244.297 453.645 240.002 470.319 235.131C487.095 230.23 503.661 224.706 513.042 219.812C513.776 219.429 514.061 218.523 513.678 217.789C513.295 217.054 512.389 216.769 511.654 217.152C502.57 221.891 486.276 227.344 469.478 232.251C456.461 236.054 443.226 239.505 432.981 242.016C435.335 240.438 437.699 238.864 440.058 237.295C446.725 232.857 453.345 228.451 459.545 224.079C470.096 216.64 479.629 209.169 486.479 201.52C500.703 185.638 510.162 170.216 518.306 154.944C527.377 144.606 550.298 121.499 570.502 110.433C571.229 110.035 571.495 109.123 571.097 108.397C570.699 107.67 569.787 107.404 569.061 107.802C552.724 116.75 534.812 133.255 523.509 144.922C524.736 142.507 525.948 140.097 527.159 137.688L527.184 137.638C537.43 117.261 547.613 97.0087 566.139 75.7928C566.683 75.1688 566.619 74.2212 565.995 73.6763C565.371 73.1314 564.424 73.1956 563.879 73.8196C545.08 95.3485 534.69 116.018 524.422 136.446C522.178 140.91 519.94 145.362 517.621 149.81C516.615 145.037 515.629 138.947 515.254 133.038C515.01 129.194 515.028 125.472 515.451 122.262C515.879 119.02 516.7 116.464 517.932 114.812C518.427 114.148 518.29 113.208 517.626 112.713C516.962 112.217 516.022 112.354 515.527 113.018C513.844 115.276 512.931 118.43 512.477 121.87C512.019 125.341 512.009 129.274 512.26 133.228C512.744 140.855 514.211 148.733 515.469 153.887C507.702 168.417 498.76 182.995 485.617 197.97C483.9 194.867 481.814 190.41 480.239 185.51C478.323 179.551 477.225 173.123 478.294 167.722C478.455 166.91 477.927 166.121 477.114 165.96C476.302 165.799 475.512 166.327 475.351 167.14C474.136 173.277 475.407 180.283 477.383 186.428C479.18 192.018 481.611 197.051 483.506 200.331C476.947 207.439 467.944 214.487 457.817 221.628C451.628 225.991 445.087 230.344 438.462 234.753L438.455 234.758C433.802 237.854 429.106 240.979 424.462 244.155C405.543 257.091 387.61 270.773 378.691 285.942C377.885 287.313 376.415 288.844 374.446 290.389C372.495 291.92 370.136 293.402 367.646 294.699C362.604 297.324 357.29 299.052 353.924 299.052H353.896L317.392 300.431C305.132 298.095 284.836 297.732 269.929 297.677C271.199 296.82 272.394 295.842 273.513 294.829C275.235 293.269 276.838 291.567 278.303 289.987C278.485 289.79 278.664 289.596 278.841 289.404L278.883 289.358L278.885 289.357C280.134 288.005 281.262 286.785 282.312 285.792C292.263 276.39 299.51 267.501 305.085 257.923C311.902 246.21 316.174 233.543 319.877 217.799C320.339 215.835 320.744 213.983 321.128 212.222C323.469 201.507 325.077 194.146 334.432 185.307C335.034 184.738 335.061 183.789 334.492 183.186C333.923 182.584 332.974 182.557 332.372 183.126C322.311 192.631 320.519 200.879 318.175 211.663L318.174 211.666C317.796 213.41 317.402 215.22 316.957 217.112C313.661 231.125 309.946 242.517 304.433 252.921C303.508 248.236 302.484 242.154 301.784 236.002C300.859 227.884 300.527 219.851 301.626 214.721C301.799 213.911 301.283 213.113 300.473 212.94C299.663 212.767 298.866 213.283 298.692 214.093C297.481 219.748 297.878 228.216 298.803 236.342C299.699 244.212 301.115 251.957 302.197 256.917C296.833 266.01 289.862 274.532 280.252 283.612C279.121 284.68 277.914 285.987 276.673 287.33C276.483 287.535 276.293 287.742 276.102 287.948C274.641 289.525 273.115 291.142 271.499 292.605C268.228 295.567 264.837 297.666 261.25 297.667H260.927L234.292 309.639C234.135 309.588 233.946 309.526 233.728 309.456C233.009 309.223 231.973 308.891 230.697 308.493C228.146 307.697 224.635 306.635 220.797 305.573C216.371 304.348 211.426 303.098 206.998 302.267C214.086 299.146 220.12 292.8 224.815 285.533C231.279 275.528 235.478 263.372 236.566 254.121C237.614 245.207 237.269 238.808 236.667 232.373C236.558 231.205 236.44 230.04 236.322 228.86L236.321 228.851C235.787 223.539 235.223 217.93 235.223 210.53C235.223 209.702 234.551 209.03 233.723 209.03C232.894 209.03 232.223 209.702 232.223 210.53C232.223 218.093 232.804 223.866 233.339 229.187C233.457 230.359 233.573 231.509 233.68 232.652C234.271 238.969 234.602 245.14 233.587 253.771C232.555 262.543 228.523 274.266 222.295 283.905C216.032 293.6 207.818 300.789 198.57 301.294L198.531 301.296L170.882 304.29L170.868 304.291C163.608 304.945 160.456 304.777 156.387 304.56L156.386 304.56C153.959 304.431 151.207 304.284 147.062 304.284C146.234 304.284 145.562 304.955 145.562 305.784C145.562 306.612 146.234 307.284 147.062 307.284C150.889 307.284 153.571 307.423 155.999 307.549L156.001 307.549C160.109 307.762 163.492 307.938 170.471 307.338C178.057 314.686 184.433 325.126 189.594 335.884C193.211 343.424 196.208 351.072 198.593 357.834C198.869 358.615 199.726 359.025 200.507 358.749C201.288 358.473 201.698 357.617 201.422 356.835C199.519 351.441 197.225 345.472 194.534 339.426L237.759 368.198C238.258 368.988 239.145 370.778 240.181 373.76C241.312 377.013 242.592 381.604 243.726 387.691C243.878 388.506 244.661 389.043 245.475 388.891C246.29 388.739 246.827 387.956 246.675 387.142C245.518 380.925 244.2 376.186 243.015 372.775C241.842 369.401 240.769 367.242 240.062 366.246L239.902 366.02L192.12 334.215C187.314 324.256 181.388 314.394 174.296 306.937L198.732 304.292C203.683 304.313 212.364 306.352 219.997 308.464C223.795 309.516 227.274 310.568 229.803 311.357C231.068 311.751 232.094 312.08 232.804 312.31C233.139 312.418 233.404 312.505 233.589 312.566C238.64 317.326 243.278 321.345 247.608 325.098C258.541 334.572 267.515 342.349 276.236 356.081C281.375 364.174 283.973 377.186 285.249 390.992C286.466 404.156 286.462 417.777 286.46 428.029L286.46 429.352C286.46 430.18 287.131 430.852 287.96 430.852C288.788 430.852 289.46 430.18 289.46 429.352L289.46 428C289.463 417.767 289.466 404.023 288.236 390.716C286.957 376.88 284.326 363.224 278.768 354.473C269.798 340.348 260.38 332.185 249.306 322.588L249.304 322.586C245.437 319.235 241.368 315.708 237.045 311.691L261.57 300.667L262.119 300.667C276.599 300.666 301.323 300.664 315.749 303.181C315.694 304.442 315.569 305.818 315.423 307.336L315.377 307.816L315.377 307.819C315.195 309.703 314.995 311.772 314.892 313.987C314.667 318.817 314.896 324.385 316.745 330.605C320.45 343.072 330.555 357.827 355.685 374.554C356.374 375.013 357.305 374.826 357.765 374.136C358.224 373.447 358.037 372.516 357.347 372.057C332.573 355.566 323.059 341.321 319.62 329.75C317.897 323.951 317.674 318.741 317.889 314.127C317.988 311.992 318.181 309.995 318.363 308.104L318.364 308.099L318.409 307.623C318.536 306.3 318.655 305.017 318.722 303.795C325.719 305.566 331.575 309.626 337.029 314.599C339.979 317.288 342.783 320.218 345.583 323.173L346.248 323.875L346.249 323.876C348.816 326.587 351.391 329.306 354.034 331.803C357 334.606 361.49 336.309 366.359 337.556C370.19 338.536 374.438 339.275 378.616 340.001C379.775 340.203 380.929 340.403 382.067 340.608C387.37 341.561 392.337 342.601 396.262 344.21C400.092 345.78 402.639 347.774 403.688 350.465C403.653 360.603 401.638 373.867 399.496 387.96L399.496 387.961C399.385 388.693 399.273 389.427 399.162 390.163C396.893 405.12 394.601 420.821 394.601 434.221C394.601 435.049 395.273 435.721 396.101 435.721C396.93 435.721 397.601 435.049 397.601 434.221C397.601 421.088 399.853 405.615 402.128 390.612L402.481 388.289C404.167 377.193 405.805 366.419 406.426 357.259C409.817 364.707 414.177 371.468 418.812 377.999C420.882 380.916 422.995 383.772 425.103 386.622L425.104 386.624C428.771 391.581 432.424 396.518 435.813 401.724C435.558 401.92 435.321 402.141 435.103 402.377C434.388 403.149 433.779 404.171 433.247 405.332C432.182 407.658 431.295 410.842 430.542 414.541C429.031 421.96 427.997 431.795 427.285 441.82C425.861 461.888 425.717 482.95 425.717 487.519C425.717 488.348 426.389 489.019 427.217 489.019C428.046 489.019 428.717 488.348 428.717 487.519C428.717 482.976 428.861 461.996 430.278 442.033C430.987 432.041 432.011 422.363 433.482 415.139C434.219 411.516 435.053 408.596 435.975 406.581C436.436 405.572 436.888 404.865 437.303 404.416C437.386 404.326 437.465 404.25 437.538 404.187C437.822 404.552 438.188 405.027 438.626 405.605C439.761 407.105 441.375 409.299 443.282 412.064C447.096 417.595 452.071 425.396 456.72 434.481C466.06 452.732 473.907 475.819 468.843 496.048L468.819 496.146L468.808 496.246C467.234 510.366 463.099 520.968 459.375 528.023C457.513 531.552 455.753 534.194 454.467 535.944C453.824 536.82 453.3 537.472 452.941 537.9C452.761 538.114 452.623 538.273 452.532 538.375C452.487 538.426 452.453 538.463 452.432 538.486L452.407 538.514C451.84 539.117 451.869 540.066 452.472 540.634C453.076 541.201 454.025 541.172 454.593 540.569L454.559 540.535C454.593 540.568 454.594 540.568 454.594 540.567L454.595 540.566L454.599 540.562L454.61 540.55L454.646 540.511C454.677 540.478 454.72 540.43 454.775 540.368C454.885 540.244 455.042 540.064 455.241 539.826C455.638 539.352 456.202 538.649 456.885 537.72C458.25 535.862 460.09 533.095 462.028 529.424C465.559 522.736 469.41 513.048 471.293 500.392C472.547 501.684 474.083 502.827 475.739 503.864C478.728 505.737 482.33 507.398 485.868 509.005L486.536 509.307C489.882 510.825 493.149 512.307 495.946 513.928C498.95 515.67 501.213 517.464 502.432 519.439C503.471 521.122 504.839 524.5 506.473 528.869C507.074 530.478 507.709 532.212 508.369 534.016L508.374 534.03C509.471 537.026 510.637 540.215 511.839 543.34C513.772 548.363 515.836 553.332 517.942 557.302C518.995 559.286 520.078 561.059 521.183 562.478C522.271 563.873 523.472 565.044 524.794 565.669C525.543 566.023 526.437 565.702 526.791 564.953C527.145 564.204 526.824 563.31 526.075 562.956C525.377 562.626 524.525 561.884 523.549 560.633C522.592 559.405 521.601 557.798 520.592 555.896C518.575 552.093 516.562 547.261 514.639 542.263C513.443 539.152 512.297 536.02 511.209 533.046L511.206 533.037C510.542 531.225 509.901 529.472 509.283 527.819C507.681 523.535 506.211 519.849 504.985 517.863C503.366 515.241 500.572 513.142 497.451 511.333C494.518 509.633 491.12 508.092 487.813 506.593L487.108 506.273C483.541 504.654 480.123 503.071 477.332 501.322C474.73 499.692 472.857 498.027 471.886 496.236C476.956 475.029 468.718 451.34 459.391 433.114C454.667 423.884 449.618 415.968 445.751 410.361C443.817 407.556 442.177 405.326 441.018 403.794C440.439 403.029 439.979 402.437 439.664 402.036C439.594 401.947 439.53 401.867 439.475 401.796C439.405 401.709 439.347 401.636 439.301 401.578L439.228 401.487C435.542 395.69 431.455 390.163 427.425 384.714C425.333 381.885 423.256 379.077 421.259 376.263C415.355 367.944 410.039 359.436 406.603 349.698C405.189 345.691 401.64 343.173 397.4 341.435C393.147 339.691 387.889 338.606 382.598 337.655C381.42 337.443 380.241 337.238 379.067 337.034L379.056 337.032C374.898 336.309 370.808 335.598 367.103 334.649C362.323 333.425 358.474 331.871 356.094 329.623C353.514 327.185 350.994 324.524 348.414 321.798L347.761 321.11C344.964 318.158 342.091 315.154 339.051 312.383C335.034 308.72 330.677 305.416 325.718 303.119L353.952 302.052C358.349 302.051 362.916 301.966 367.59 301.878C376.731 301.706 386.279 301.526 395.751 301.964C410.043 302.625 423.882 304.689 435.362 310.213C439.44 312.175 443.496 315.583 446.961 319.554C450.423 323.52 453.218 327.959 454.82 331.894C455.85 334.426 456.905 337.046 457.987 339.736L458 339.767C463.664 353.842 470.096 369.824 477.879 385.023C487.152 403.132 498.42 420.29 512.759 431.902C513.403 432.424 514.348 432.324 514.869 431.68C515.391 431.037 515.291 430.092 514.647 429.571C500.79 418.349 489.753 401.629 480.549 383.655C472.835 368.59 466.462 352.756 460.797 338.681L460.791 338.666C459.702 335.961 458.639 333.32 457.598 330.763C455.851 326.472 452.864 321.754 449.222 317.581C447.335 315.419 445.251 313.38 443.048 311.612L443.77 311.64C448.107 312.794 452.422 314.595 456.784 316.594C458.221 317.253 459.666 317.934 461.118 318.619C466.625 321.218 472.232 323.864 477.869 325.462C486.1 327.795 494.847 333.317 503.524 339.525C506.357 341.551 509.189 343.657 511.985 345.735C517.652 349.948 523.167 354.049 528.23 357.151C537.483 362.822 547.156 368.088 556.769 373.32C561.752 376.033 566.719 378.736 571.603 381.483C583.415 388.127 594.074 395.085 604.513 403.397C603.625 419.834 603.926 431.042 604.265 443.708C604.462 451.038 604.671 458.855 604.671 468.457C604.671 469.285 605.343 469.957 606.171 469.957C607 469.957 607.671 469.285 607.671 468.457C607.671 458.684 607.459 450.812 607.262 443.472V443.47C606.938 431.46 606.653 420.873 607.398 405.708C617.734 413.998 628.052 422.286 638.189 430.748C638.294 445.583 641.715 461.081 646.287 476.45C649.249 486.41 652.723 496.399 656.11 506.137C658.021 511.63 659.903 517.044 661.651 522.327C661.911 523.113 662.759 523.54 663.546 523.28C664.332 523.02 664.759 522.171 664.499 521.385C662.721 516.008 660.824 510.554 658.907 505.045C655.538 495.358 652.109 485.501 649.162 475.595C644.902 461.273 641.708 447.024 641.244 433.41C644.906 436.786 648.147 440.461 651.358 444.245C652.035 445.044 652.713 445.849 653.392 446.656C656.632 450.505 659.93 454.424 663.628 458.112C676.824 471.273 690.11 484.159 705.296 495.892C704.812 500.569 704.155 505.429 703.481 510.417L703.478 510.437C703.367 511.261 703.255 512.088 703.143 512.919C702.316 519.069 701.505 525.384 701.011 531.684C700.025 544.27 700.293 556.938 704.317 568.345C704.593 569.126 705.45 569.536 706.231 569.26C707.012 568.985 707.422 568.128 707.147 567.347C703.33 556.529 703.028 544.356 704.002 531.919C704.489 525.708 705.29 519.466 706.116 513.319C706.227 512.493 706.339 511.67 706.45 510.848L706.453 510.825C707.036 506.51 707.613 502.248 708.074 498.112C715.784 504.583 730.95 519.436 744.757 534.848C752.355 543.328 759.5 551.933 764.737 559.356C767.357 563.069 769.477 566.456 770.936 569.362C772.419 572.315 773.128 574.597 773.128 576.155C773.128 576.984 773.799 577.655 774.628 577.655C775.456 577.655 776.128 576.984 776.128 576.155C776.128 573.866 775.146 571.061 773.617 568.016C772.065 564.925 769.853 561.403 767.188 557.626C761.856 550.069 754.625 541.367 746.992 532.846C731.745 515.828 714.732 499.356 707.785 494.023C692.489 482.281 679.126 469.331 665.747 455.988C662.15 452.401 658.951 448.601 655.714 444.756C655.028 443.94 654.339 443.122 653.645 442.304C649.699 437.654 645.589 433.022 640.648 428.893C629.825 419.847 618.796 411.003 607.782 402.171L606.991 401.537C596.21 392.892 585.228 385.705 573.073 378.869C568.11 376.077 563.105 373.353 558.105 370.631C548.537 365.424 538.99 360.227 529.797 354.594C524.847 351.56 519.523 347.601 513.928 343.44L513.927 343.439C511.105 341.341 508.215 339.192 505.269 337.085C496.583 330.87 487.466 325.064 478.687 322.576C473.313 321.052 468.001 318.547 462.524 315.964L462.522 315.963C461.04 315.264 459.545 314.559 458.034 313.867C456.787 313.295 455.53 312.733 454.263 312.193C464.319 312.809 477.466 313.778 491.1 314.784L491.106 314.784C492.535 314.89 493.969 314.995 495.406 315.101C496.369 315.172 497.333 315.243 498.297 315.314C519.823 316.895 541.439 318.43 552.924 318.671C565.904 318.943 574.43 320.311 582.864 321.664L583.75 321.806C592.37 323.187 601.039 324.509 614.271 324.552C623.91 335.13 638.937 351.231 651.627 364.766C658.073 371.64 663.917 377.853 668.15 382.349C670.267 384.596 671.981 386.414 673.165 387.671C673.758 388.299 674.218 388.786 674.53 389.117L674.975 389.589L674.998 389.613L675.005 389.621L675.039 389.656L675.075 389.69L675.076 389.691L675.525 390.108C675.82 390.382 676.254 390.784 676.81 391.299C677.923 392.328 679.526 393.808 681.49 395.61C685.417 399.213 690.787 404.107 696.555 409.266C708.048 419.546 721.252 430.997 727.718 435.301C728.408 435.76 729.339 435.573 729.798 434.884C730.257 434.194 730.07 433.263 729.381 432.804C723.133 428.645 710.11 417.365 698.555 407.03C692.799 401.882 687.44 396.997 683.518 393.399C681.558 391.601 679.958 390.124 678.847 389.097C678.574 388.844 678.33 388.618 678.118 388.421C677.9 388.219 677.715 388.048 677.566 387.91L677.232 387.599L677.157 387.529L677.154 387.526L675.348 385.612C674.164 384.356 672.45 382.539 670.334 380.292C666.102 375.798 660.259 369.586 653.816 362.714C641.955 350.064 628.066 335.187 618.445 324.674C620.736 324.805 623.523 325.029 626.637 325.294C627.503 325.368 628.393 325.444 629.302 325.523L629.304 325.523C633.356 325.872 637.795 326.254 642.237 326.555C652.817 327.89 663.033 329.861 668.453 332.381C672.607 334.312 676.771 336.289 680.95 338.273C702.102 348.315 723.679 358.559 746.706 364.182C745.642 376.875 747.395 405.984 762.443 431.885C762.859 432.601 763.777 432.844 764.493 432.428C765.21 432.012 765.453 431.094 765.037 430.378C750.563 405.465 748.717 377.419 749.655 364.936C756.537 366.981 763.708 371.593 770.76 376.866C773.809 379.145 776.801 381.52 779.718 383.837L779.72 383.838C780.437 384.407 781.149 384.973 781.856 385.532C785.429 388.358 788.884 391.037 792.116 393.204C800.736 398.984 814.814 405.69 831.221 412.963C838.861 416.349 846.955 419.836 855.269 423.418C864.964 427.596 874.959 431.902 884.884 436.329C903.227 444.509 920.981 452.949 935.187 461.316C942.29 465.499 948.474 469.645 953.39 473.712C958.32 477.79 961.891 481.721 963.865 485.451C964.252 486.183 965.16 486.462 965.892 486.075C966.624 485.687 966.904 484.78 966.516 484.048C964.278 479.818 960.369 475.592 955.302 471.4C950.22 467.196 943.89 462.96 936.71 458.731C922.351 450.274 904.469 441.778 886.106 433.589C876.257 429.196 866.168 424.848 856.406 420.641L856.396 420.637C848.052 417.041 839.947 413.549 832.437 410.22C815.996 402.932 802.156 396.324 793.786 390.712C790.664 388.618 787.292 386.007 783.717 383.179C783.019 382.627 782.313 382.066 781.6 381.5L781.597 381.498C778.677 379.18 775.643 376.771 772.557 374.463C764.905 368.742 756.71 363.468 748.668 361.568C725.501 356.096 703.856 345.823 682.313 335.598L682.306 335.594C678.109 333.602 673.917 331.613 669.718 329.66C667.575 328.664 664.803 327.765 661.637 326.959C665.314 326.737 668.552 326.242 670.86 325.288C733.408 325.289 793.156 325.412 855.647 326.4C865.304 326.552 870.727 326.635 880.026 326.771C880.882 331.163 883.476 336.422 886.953 341.933C890.813 348.051 895.883 354.666 901.262 361.048C912.015 373.805 924.113 385.761 930.511 391.134C931.145 391.666 932.091 391.584 932.624 390.95C933.157 390.315 933.075 389.369 932.44 388.836C926.201 383.596 914.223 371.77 903.556 359.114C898.226 352.79 893.25 346.291 889.49 340.332C886.221 335.151 883.96 330.513 883.102 326.816C887.004 326.872 890.906 326.927 894.808 326.981C895.309 326.988 895.812 326.994 896.315 327.001C908.117 327.317 915.869 331.396 923.331 336.49C924.972 337.61 926.61 338.789 928.281 339.992C934.506 344.474 941.186 349.284 950.177 352.587C952.304 353.368 955.187 354.366 958.585 355.542C966.79 358.381 977.992 362.257 988.776 366.629C996.387 369.715 1003.72 373.021 1009.55 376.341C1012.47 378.001 1014.98 379.647 1016.96 381.252C1018.95 382.87 1020.31 384.377 1021.03 385.735C1021.42 386.467 1022.33 386.747 1023.06 386.359C1023.79 385.972 1024.07 385.064 1023.68 384.332C1022.7 382.462 1020.98 380.654 1018.85 378.923C1016.7 377.179 1014.04 375.441 1011.04 373.733C1005.03 370.318 997.563 366.955 989.904 363.849C979.044 359.446 967.661 355.507 959.441 352.663L959.44 352.662C956.087 351.502 953.261 350.524 951.212 349.771C942.643 346.623 936.377 342.116 930.192 337.667L930.19 337.665C928.477 336.433 926.77 335.205 925.022 334.012C921.18 331.389 917.195 328.984 912.612 327.186C932.599 327.456 953.327 328.127 971.986 331.8C989.864 335.319 1004 334.119 1017.15 333.004L1017.15 333.004C1019.5 332.804 1021.82 332.607 1024.13 332.44C1039.29 331.345 1053.94 331.518 1073.08 340.561Z" fill="#272E16"/>
</svg>
