<svg width="1283" height="198" viewBox="0 0 1283 198" fill="none" xmlns="http://www.w3.org/2000/svg">
<path d="M1209.6 9.40723C1209.6 10.6175 1206.72 14.4811 1200.95 20.998C1195.27 27.4219 1191.87 32.8682 1190.75 37.3369C1189.73 41.8057 1189.21 63.1719 1189.21 101.436C1189.21 139.606 1189.73 160.693 1190.75 164.696C1191.87 168.7 1194.15 171.446 1197.59 172.936C1201.04 174.332 1206.95 175.03 1215.33 175.03C1223.71 175.03 1231.02 173.494 1237.25 170.422C1243.58 167.35 1250.38 161.857 1257.64 153.943C1264.9 146.03 1271.14 142.073 1276.36 142.073C1280.36 142.073 1282.36 144.587 1282.36 149.614V153.245C1282.36 160.228 1281.24 168.001 1279.01 176.566C1276.77 185.038 1275.01 189.88 1273.7 191.09C1270.82 193.79 1263.83 195.14 1252.75 195.14H1177.76C1153.28 195.14 1139.73 194.907 1137.13 194.441C1132.66 193.604 1130.42 191.09 1130.42 186.9C1130.42 184.666 1132.89 181.082 1137.82 176.147C1142.76 171.213 1146.16 164.789 1148.02 156.876C1148.76 153.711 1149.14 132.856 1149.14 94.3135C1149.14 55.7705 1148.58 34.637 1147.46 30.9131C1146.34 27.1891 1142.76 23.4186 1136.71 19.6016C1130.66 15.7845 1127.63 11.502 1127.63 6.75391C1127.63 2.93685 1136.71 1.02832 1154.86 1.02832H1191.87C1199.13 1.02832 1203.88 1.58691 1206.11 2.7041C1208.44 3.72819 1209.6 5.96257 1209.6 9.40723Z" fill="#CABB94"/>
<path d="M1037.84 9.40723C1037.84 10.6175 1034.95 14.4811 1029.18 20.998C1023.5 27.4219 1020.1 32.8682 1018.98 37.3369C1017.96 41.8057 1017.45 63.1719 1017.45 101.436C1017.45 139.606 1017.96 160.693 1018.98 164.696C1020.1 168.7 1022.38 171.446 1025.83 172.936C1029.27 174.332 1035.18 175.03 1043.56 175.03C1051.94 175.03 1059.25 173.494 1065.49 170.422C1071.82 167.35 1078.61 161.857 1085.88 153.943C1093.14 146.03 1099.37 142.073 1104.59 142.073C1108.59 142.073 1110.59 144.587 1110.59 149.614V153.245C1110.59 160.228 1109.48 168.001 1107.24 176.566C1105.01 185.038 1103.24 189.88 1101.93 191.09C1099.05 193.79 1092.07 195.14 1080.99 195.14H1006C981.511 195.14 967.965 194.907 965.358 194.441C960.89 193.604 958.655 191.09 958.655 186.9C958.655 184.666 961.122 181.082 966.057 176.147C970.991 171.213 974.389 164.789 976.251 156.876C976.996 153.711 977.368 132.856 977.368 94.3135C977.368 55.7705 976.81 34.637 975.692 30.9131C974.575 27.1891 970.991 23.4186 964.939 19.6016C958.888 15.7845 955.862 11.502 955.862 6.75391C955.862 2.93685 964.939 1.02832 983.094 1.02832H1020.1C1027.36 1.02832 1032.11 1.58691 1034.34 2.7041C1036.67 3.72819 1037.84 5.96257 1037.84 9.40723Z" fill="#CABB94"/>
<path d="M926.955 25.6064C926.955 31.8441 926.071 35.9404 924.302 37.8955C922.533 39.7575 919.833 40.6885 916.202 40.6885L913.688 39.4316L910.756 37.4766L907.404 35.5215C904.146 33.6595 897.862 31.0993 888.552 27.8408C879.335 24.5824 870.723 22.9531 862.717 22.9531C854.71 22.9531 848.845 25.8392 845.121 31.6113C841.49 37.3835 839.675 49.2536 839.675 67.2217C839.675 72.3421 841.257 76.4385 844.423 79.5107C847.588 82.583 851.964 84.1191 857.55 84.1191C863.136 84.1191 869.28 82.1641 875.983 78.2539C882.78 74.3438 887.574 72.3887 890.367 72.3887C893.253 72.3887 895.767 74.2972 897.908 78.1143C900.049 81.8382 901.12 86.307 901.12 91.5205C901.12 105.578 899.584 114.237 896.512 117.495L892.741 119.59C887.248 119.59 882.873 118.333 879.614 115.819C872.446 110.326 867.186 107.58 863.834 107.58C853.221 107.58 846.099 109.814 842.468 114.283C840.699 116.518 839.814 124.198 839.814 137.325C839.814 150.359 842.468 160.274 847.774 167.07C850.567 170.701 856.712 172.517 866.208 172.517C875.704 172.517 887.807 169.305 902.517 162.881C917.319 156.364 925.791 153.105 927.933 153.105C931.936 153.105 933.938 156.876 933.938 164.417V169.444C933.938 172.051 933.007 175.682 931.145 180.337C929.283 184.992 926.396 188.623 922.486 191.229C918.576 193.836 912.152 195.14 903.215 195.14H801.97C786.515 195.14 778.788 193.138 778.788 189.135V184.666C778.788 181.501 781.628 178.335 787.307 175.17C793.079 172.005 796.43 168.606 797.361 164.976C798.385 161.252 798.897 139.839 798.897 100.737C798.897 61.6357 798.246 39.4782 796.942 34.2646C795.639 29.0511 792.381 24.2565 787.167 19.8809C781.953 15.5052 779.347 11.1761 779.347 6.89355C779.347 3.82129 782.698 2.09896 789.401 1.72656C796.104 1.26107 818.122 1.02832 855.455 1.02832L891.764 0.888672H897.629C907.032 0.888672 913.642 2.23861 917.459 4.93848C923.79 9.40723 926.955 16.2965 926.955 25.6064Z" fill="#CABB94"/>
<path d="M734.659 5.07812C747.879 5.07812 754.489 8.42969 754.489 15.1328C754.489 17.5534 751.37 24.8151 745.133 36.918C738.895 49.0208 734.752 58.3307 732.704 64.8477L726.141 87.4707C712.921 132.251 704.728 159.529 701.562 169.305L699.188 176.566C696.396 182.618 691.787 187.366 685.363 190.811C682.384 192.393 678.893 193.185 674.89 193.185C670.886 193.185 667.442 191.788 664.556 188.995C661.67 186.202 658.737 181.547 655.758 175.03C652.872 168.513 646.634 151.104 637.045 122.802C627.549 94.4066 622.382 80.209 621.544 80.209L619.17 84.3984L616.936 91.7998C614.98 98.4098 613.444 103.437 612.327 106.882L605.345 129.086C596.314 157.947 590.542 174.704 588.028 179.359C585.515 183.921 582.489 187.552 578.951 190.252C575.413 192.952 572.108 194.302 569.036 194.302C560.099 194.302 553.209 190.066 548.368 181.594C546.692 178.708 537.895 151.756 521.975 100.737L519.601 93.3359C515.039 78.6263 511.92 68.7113 510.244 63.5908L507.87 56.3291C504.798 47.5778 500.515 39.0127 495.022 30.6338C489.623 22.1618 486.923 16.7155 486.923 14.2949C486.923 11.8743 488.273 9.54688 490.973 7.3125C493.766 4.98503 497.583 3.82129 502.424 3.82129C524.581 3.82129 540.082 6.89355 548.927 13.0381C555.164 17.3206 558.283 26.2116 558.283 39.7109L558.004 45.7158C557.818 49.8122 557.725 54.0482 557.725 58.4238C557.725 69.0371 560.285 82.2106 565.405 97.9443C570.526 113.585 575.181 121.405 579.37 121.405L581.465 119.59C586.306 113.166 590.356 102.646 593.614 88.0293C596.873 73.4128 598.502 59.4479 598.502 46.1348L597.804 40.2695L597.385 34.6836C597.385 23.8841 601.016 16.1569 608.277 11.502C612.001 9.08138 618.891 7.87109 628.945 7.87109C639.093 7.87109 646.727 11.7812 651.848 19.6016C655.292 24.8151 657.015 32.4958 657.015 42.6436C657.015 52.7913 663.578 76.5316 676.705 113.864C678.66 119.543 680.103 122.383 681.034 122.383C687.086 117.542 691.229 111.351 693.463 103.81C700.166 81.4658 703.518 64.708 703.518 53.5361C703.518 50.7432 703.331 46.7865 702.959 41.666L702.4 35.9404L701.283 30.7734L700.166 26.3047C700.166 19.1361 703.797 13.8294 711.059 10.3848C718.413 6.84701 726.28 5.07812 734.659 5.07812Z" fill="#CABB94"/>
<path d="M324.232 1.16797C340.99 1.16797 349.369 4.14714 349.369 10.1055C349.369 12.7122 348.485 15.6449 346.716 18.9033C344.947 22.0687 344.062 25.7461 344.062 29.9355C344.062 34.125 345.599 40.9212 348.671 50.3242C361.519 89.5189 370.456 115.214 375.483 127.41C380.511 139.606 383.49 145.704 384.421 145.704C387.121 145.704 396.431 121.126 412.351 71.9697C418.495 52.9775 421.567 38.5938 421.567 28.8184C421.567 26.4909 420.171 22.9531 417.378 18.2051C414.678 13.457 413.328 10.4779 413.328 9.26758C413.328 6.19531 415.004 4.10059 418.355 2.9834C421.8 1.77311 428.643 1.16797 438.884 1.16797H448.659C459.179 1.16797 465.929 2.00586 468.908 3.68164C471.98 5.26432 473.517 7.4987 473.517 10.3848C473.517 13.2708 470.491 17.0879 464.439 21.8359C458.388 26.584 453.919 31.9372 451.033 37.8955C450.475 39.0127 441.816 62.2409 425.059 107.58C408.394 152.826 397.781 179.127 393.219 186.481C388.75 193.836 381.488 197.514 371.434 197.514C365.661 197.514 360.076 191.369 354.676 179.08C351.604 172.191 342.201 148.264 326.467 107.301L312.642 71.1318C310.314 65.0804 307.707 58.1911 304.821 50.4639C301.935 42.6436 299.887 37.3835 298.677 34.6836C296.349 29.6562 291.834 25.1875 285.131 21.2773C278.428 17.2741 275.076 13.5036 275.076 9.96582C275.076 6.33496 275.821 4.14714 277.311 3.40234C280.197 1.91276 294.348 1.16797 319.764 1.16797H324.232Z" fill="#CABB94"/>
<path d="M192.544 193.185C180.627 193.185 174.669 191.276 174.669 187.459C174.669 183.642 177.741 179.592 183.886 175.31C190.123 170.934 193.94 166.046 195.337 160.646C196.733 155.247 197.432 133.927 197.432 96.6875C197.432 59.3548 197.059 39.2454 196.314 36.3594C194.639 29.7493 191.473 24.8151 186.818 21.5566C178.346 15.5983 174.11 10.9434 174.11 7.5918V5.63672C174.11 2.28516 185.841 0.609375 209.302 0.609375L218.798 0.19043H228.294L231.506 0.330078H234.718C245.331 0.330078 251.755 0.749023 253.989 1.58691C256.317 2.33171 257.48 4.70573 257.48 8.70898C257.48 11.1296 254.036 15.1328 247.146 20.7188C243.423 23.791 240.909 28.1667 239.605 33.8457C238.302 39.5247 237.65 61.4495 237.65 99.6201C237.65 137.791 238.162 158.971 239.187 163.16C240.211 167.35 243.562 171.865 249.241 176.706C254.92 181.547 257.76 185.55 257.76 188.716C257.76 192.44 254.036 194.302 246.588 194.302H236.812L233.601 194.162H227.037L217.541 193.883L204.973 193.604L198.828 193.324C196.78 193.231 194.685 193.185 192.544 193.185Z" fill="#CABB94"/>
<path d="M82.3613 9.40723C82.3613 10.6175 79.4753 14.4811 73.7031 20.998C68.0241 27.4219 64.626 32.8682 63.5088 37.3369C62.4847 41.8057 61.9727 63.1719 61.9727 101.436C61.9727 139.606 62.4847 160.693 63.5088 164.696C64.626 168.7 66.9069 171.446 70.3516 172.936C73.7962 174.332 79.708 175.03 88.0869 175.03C96.4658 175.03 103.774 173.494 110.012 170.422C116.342 167.35 123.139 161.857 130.4 153.943C137.662 146.03 143.9 142.073 149.113 142.073C153.117 142.073 155.118 144.587 155.118 149.614V153.245C155.118 160.228 154.001 168.001 151.767 176.566C149.532 185.038 147.763 189.88 146.46 191.09C143.574 193.79 136.591 195.14 125.513 195.14H50.5215C26.0365 195.14 12.4906 194.907 9.88379 194.441C5.41504 193.604 3.18066 191.09 3.18066 186.9C3.18066 184.666 5.64779 181.082 10.582 176.147C15.5163 171.213 18.9144 164.789 20.7764 156.876C21.5212 153.711 21.8936 132.856 21.8936 94.3135C21.8936 55.7705 21.335 34.637 20.2178 30.9131C19.1006 27.1891 15.5163 23.4186 9.46484 19.6016C3.41341 15.7845 0.387695 11.502 0.387695 6.75391C0.387695 2.93685 9.46484 1.02832 27.6191 1.02832H64.626C71.8877 1.02832 76.6357 1.58691 78.8701 2.7041C81.1976 3.72819 82.3613 5.96257 82.3613 9.40723Z" fill="#CABB94"/>
</svg>
